<?xml version="1.0" encoding="utf-8"?>
<!-- Generator: Adobe Illustrator 16.0.0, SVG Export Plug-In . SVG Version: 6.00 Build 0)  -->
<!DOCTYPE svg PUBLIC "-//W3C//DTD SVG 1.1//EN" "http://www.w3.org/Graphics/SVG/1.1/DTD/svg11.dtd">
<svg version="1.1" id="Layer_1" xmlns="http://www.w3.org/2000/svg" xmlns:xlink="http://www.w3.org/1999/xlink" x="0px" y="0px"
	 width="176.044px" height="70.866px" viewBox="0 0 176.044 70.866" enable-background="new 0 0 176.044 70.866"
	 xml:space="preserve">
<g>
	<defs>
		<path id="SVGID_1_" d="M0,24.628c5.676,4.105,18.161,12.166,22.214,28.128v-0.001C19.996,34.443,11.13,24.773,8.929,21.87
			L0,24.628z"/>
	</defs>
	<clipPath id="SVGID_2_">
		<use xlink:href="#SVGID_1_"  overflow="visible"/>
	</clipPath>
	
		<linearGradient id="SVGID_3_" gradientUnits="userSpaceOnUse" x1="0" y1="70.8672" x2="1" y2="70.8672" gradientTransform="matrix(0.7455 -30.542 30.542 0.7455 -2153.6641 -0.3597)">
		<stop  offset="0" style="stop-color:#E7E6EB"/>
		<stop  offset="0.1105" style="stop-color:#CBC4DC"/>
		<stop  offset="0.3799" style="stop-color:#9484BB"/>
		<stop  offset="0.6028" style="stop-color:#745EA7"/>
		<stop  offset="0.768" style="stop-color:#61489C"/>
		<stop  offset="0.8571" style="stop-color:#5A3F99"/>
		<stop  offset="1" style="stop-color:#5A3F99"/>
	</linearGradient>
	<polygon clip-path="url(#SVGID_2_)" fill="url(#SVGID_3_)" points="22.201,53.299 22.967,21.889 0.013,21.328 -0.753,52.739 	"/>
</g>
<g>
	<defs>
		<path id="SVGID_4_" d="M9.799,6.541c0,3.607,2.927,6.532,6.539,6.532c3.605,0,6.534-2.925,6.534-6.532
			C22.872,2.929,19.943,0,16.338,0C12.726,0,9.799,2.929,9.799,6.541"/>
	</defs>
	<clipPath id="SVGID_5_">
		<use xlink:href="#SVGID_4_"  overflow="visible"/>
	</clipPath>
	
		<radialGradient id="SVGID_6_" cx="0" cy="70.8662" r="1" gradientTransform="matrix(12.4186 0 0 12.4186 17.8546 -876.2388)" gradientUnits="userSpaceOnUse">
		<stop  offset="0" style="stop-color:#FFFFFF"/>
		<stop  offset="0.0549" style="stop-color:#FFFFFF"/>
		<stop  offset="0.143" style="stop-color:#DDE3F2"/>
		<stop  offset="0.3332" style="stop-color:#95B0D7"/>
		<stop  offset="0.4725" style="stop-color:#6190C6"/>
		<stop  offset="0.5427" style="stop-color:#5081BE"/>
		<stop  offset="0.6528" style="stop-color:#3671B6"/>
		<stop  offset="0.7519" style="stop-color:#2268B2"/>
		<stop  offset="0.8297" style="stop-color:#1865B1"/>
		<stop  offset="1" style="stop-color:#1865B1"/>
	</radialGradient>
	<rect x="9.799" clip-path="url(#SVGID_5_)" fill="url(#SVGID_6_)" width="13.073" height="13.073"/>
</g>
<g>
	<defs>
		<path id="SVGID_7_" d="M9.734,18.575c2.31,3.188,12.269,16.183,13.439,33.116c0.408,5.895-0.383,12.894-1.911,17.813
			c-0.342,1.217,0.165,1.957,1.016,0.084c17.189-33.8-1.659-54.359-1.659-54.359L9.734,18.575z"/>
	</defs>
	<clipPath id="SVGID_8_">
		<use xlink:href="#SVGID_7_"  overflow="visible"/>
	</clipPath>
	
		<linearGradient id="SVGID_9_" gradientUnits="userSpaceOnUse" x1="0" y1="70.8662" x2="1" y2="70.8662" gradientTransform="matrix(-2.757 -55.4071 55.4071 -2.757 -3900.5237 265.8928)">
		<stop  offset="0" style="stop-color:#E1E7F1"/>
		<stop  offset="0.1211" style="stop-color:#C4D1E7"/>
		<stop  offset="0.3825" style="stop-color:#7FA2CF"/>
		<stop  offset="0.4945" style="stop-color:#6190C6"/>
		<stop  offset="0.5658" style="stop-color:#5081BE"/>
		<stop  offset="0.6776" style="stop-color:#3671B6"/>
		<stop  offset="0.7782" style="stop-color:#2268B2"/>
		<stop  offset="0.8571" style="stop-color:#1865B1"/>
		<stop  offset="1" style="stop-color:#1865B1"/>
	</linearGradient>
	<polygon clip-path="url(#SVGID_8_)" fill="url(#SVGID_9_)" points="42.258,71.323 39.394,13.754 6.943,15.369 9.808,72.938 	"/>
</g>
<g>
	<defs>
		<rect id="SVGID_10_" width="176.044" height="70.866"/>
	</defs>
	<clipPath id="SVGID_11_">
		<use xlink:href="#SVGID_10_"  overflow="visible"/>
	</clipPath>
	<path clip-path="url(#SVGID_11_)" fill-rule="evenodd" clip-rule="evenodd" fill="#73BF44" d="M43.23,8.571
		c0,0-7.92,3.022-12.315,7.315c-6.52,6.378-7.851,10.516-7.851,10.516s6.105-1.152,13.261-8.147
		C42.794,11.92,43.23,8.571,43.23,8.571"/>
	<path clip-path="url(#SVGID_11_)" fill="#0064A8" d="M45.249,31.835v3.505c0,0.927,0.091,1.42,0.271,1.476
		c0.304,0.085,0.538,0.127,0.704,0.139l0.149,0.01v0.771h-4.899v-0.771l0.155-0.01c0.555-0.039,0.892-0.132,1.003-0.283
		c0.113-0.149,0.164-0.596,0.164-1.332v-7.467c0-0.735-0.049-1.179-0.164-1.324c-0.104-0.152-0.442-0.249-1.003-0.295l-0.155-0.009
		v-0.764h4.899v0.764l-0.149,0.009c-0.462,0.042-0.741,0.136-0.837,0.295c-0.093,0.148-0.138,0.594-0.138,1.324v3.26l3.58-3.26
		c0.88-0.807,1.32-1.288,1.32-1.44c0-0.124-0.277-0.188-0.834-0.188h-0.141v-0.764h3.732v0.764l-0.151,0.009
		c-0.527,0.042-0.85,0.097-0.971,0.174C51.66,26.5,51.093,27,50.082,27.917l-2.866,2.638l4.156,4.804
		c0.728,0.799,1.174,1.259,1.352,1.386c0.17,0.117,0.483,0.19,0.945,0.211l0.149,0.01v0.771H47.9v-0.771h0.145
		c0.679,0,1.021-0.084,1.037-0.249c0.006-0.118-0.315-0.58-0.968-1.38L45.249,31.835z"/>
	<path clip-path="url(#SVGID_11_)" fill="#0064A8" d="M57.817,30.357c0.373-0.639,0.824-1.122,1.341-1.442
		c0.523-0.319,1.113-0.483,1.772-0.483c0.817,0,1.461,0.254,1.924,0.755c0.46,0.508,0.691,1.214,0.691,2.11v4.038
		c0,0.739,0.055,1.182,0.165,1.335c0.113,0.151,0.453,0.248,1.008,0.286l0.158,0.007v0.773h-5.114v-0.773l0.15-0.007
		c0.567-0.038,0.902-0.135,1.009-0.286c0.116-0.153,0.171-0.596,0.171-1.335v-3.754c0-0.645-0.074-1.085-0.227-1.309
		c-0.156-0.231-0.446-0.345-0.879-0.345c-0.366,0-0.735,0.109-1.095,0.332c-0.36,0.228-0.72,0.567-1.074,1.017v4.059
		c0,0.739,0.06,1.182,0.174,1.335c0.109,0.151,0.44,0.248,0.999,0.286l0.152,0.007v0.773h-5.101v-0.773l0.156-0.007
		c0.56-0.038,0.894-0.135,1.008-0.286c0.107-0.153,0.162-0.596,0.162-1.335v-8.277c0-0.736-0.055-1.181-0.162-1.333
		c-0.114-0.154-0.448-0.247-1.008-0.283l-0.156-0.016v-0.767h3.776V30.357z"/>
	<path clip-path="url(#SVGID_11_)" fill="#0064A8" d="M70.129,37.945c-1.471,0-2.626-0.431-3.47-1.273
		c-0.839-0.846-1.269-2.012-1.269-3.483c0-1.477,0.43-2.637,1.269-3.479c0.844-0.851,1.999-1.278,3.47-1.278
		c1.455,0,2.611,0.427,3.459,1.278c0.835,0.842,1.259,2.002,1.259,3.479c0,1.471-0.424,2.637-1.259,3.483
		C72.74,37.515,71.584,37.945,70.129,37.945 M70.129,37.071c0.673,0,1.173-0.321,1.508-0.969c0.335-0.647,0.503-1.625,0.503-2.914
		c0-1.297-0.168-2.269-0.503-2.913c-0.335-0.648-0.835-0.971-1.508-0.971c-0.679,0-1.182,0.323-1.52,0.971
		c-0.337,0.644-0.502,1.616-0.502,2.913c0,1.289,0.165,2.267,0.502,2.914C68.947,36.75,69.45,37.071,70.129,37.071"/>
	<path clip-path="url(#SVGID_11_)" fill="#0064A8" d="M80.604,37.945c-1.472,0-2.625-0.431-3.465-1.273
		c-0.842-0.846-1.263-2.012-1.263-3.483c0-1.477,0.421-2.637,1.263-3.479c0.84-0.851,1.993-1.278,3.465-1.278
		c1.462,0,2.614,0.427,3.46,1.278c0.837,0.842,1.259,2.002,1.259,3.479c0,1.471-0.422,2.637-1.259,3.483
		C83.217,37.515,82.065,37.945,80.604,37.945 M80.604,37.071c0.672,0,1.175-0.321,1.515-0.969c0.331-0.647,0.498-1.625,0.498-2.914
		c0-1.297-0.167-2.269-0.498-2.913c-0.34-0.648-0.843-0.971-1.515-0.971c-0.674,0-1.179,0.323-1.519,0.971
		c-0.336,0.644-0.506,1.616-0.506,2.913c0,1.289,0.17,2.267,0.506,2.914C79.424,36.75,79.93,37.071,80.604,37.071"/>
	<path clip-path="url(#SVGID_11_)" fill="#0064A8" d="M95.896,26.292h-2c-0.518,0-0.841,0.067-0.99,0.209
		c-0.146,0.138-0.219,0.574-0.229,1.295l-0.01,0.233h-1.223v-2.547h11.45v2.547h-1.218l-0.01-0.233
		c-0.011-0.721-0.082-1.157-0.228-1.295c-0.154-0.142-0.477-0.209-0.997-0.209h-1.992v9.044c0.038,0.82,0.102,1.282,0.188,1.388
		c0.091,0.108,0.488,0.188,1.196,0.231l0.145,0.01v0.771h-5.623v-0.771l0.149-0.01c0.673-0.039,1.069-0.139,1.202-0.283
		c0.116-0.147,0.188-0.59,0.188-1.332V26.292z"/>
	<path clip-path="url(#SVGID_11_)" fill="#0064A8" d="M111.941,37.383c-1.08,0.368-2.139,0.562-3.16,0.562
		c-1.558,0-2.78-0.437-3.684-1.312c-0.904-0.873-1.355-2.061-1.355-3.551c0-1.385,0.413-2.5,1.222-3.361
		c0.814-0.856,1.872-1.287,3.188-1.287c2.527,0,3.79,1.547,3.79,4.653v0.186h-5.679c0,1.149,0.268,2.01,0.805,2.583
		c0.53,0.574,1.34,0.861,2.402,0.861c0.735,0,1.55-0.2,2.472-0.596V37.383z M106.316,32.499h3.212v-0.287
		c0-1.1-0.108-1.879-0.33-2.326c-0.215-0.454-0.602-0.68-1.145-0.68c-0.574,0-1.01,0.273-1.296,0.826
		C106.468,30.576,106.316,31.402,106.316,32.499"/>
	<path clip-path="url(#SVGID_11_)" fill="#0064A8" d="M121.093,37.516c-0.945,0.283-1.847,0.43-2.713,0.43
		c-1.587,0-2.834-0.435-3.741-1.302c-0.907-0.861-1.361-2.047-1.361-3.563c0-1.446,0.427-2.586,1.289-3.407
		c0.861-0.826,2.05-1.242,3.563-1.242c0.955,0,1.93,0.14,2.932,0.417v2.344h-1.178l-0.01-0.149
		c-0.042-0.692-0.123-1.109-0.249-1.259c-0.308-0.384-0.784-0.58-1.428-0.58c-0.776,0-1.351,0.317-1.739,0.943
		c-0.392,0.631-0.583,1.576-0.583,2.832c0,1.29,0.259,2.252,0.773,2.903c0.512,0.643,1.292,0.967,2.316,0.967
		c0.638,0,1.349-0.155,2.128-0.465V37.516z"/>
	<path clip-path="url(#SVGID_11_)" fill="#0064A8" d="M125.953,33.343v1.991c0,0.731,0.054,1.179,0.146,1.341
		c0.096,0.159,0.372,0.257,0.823,0.281l0.151,0.007v0.775h-4.893v-0.775l0.159-0.007c0.558-0.039,0.889-0.135,0.998-0.285
		c0.115-0.153,0.164-0.598,0.164-1.337v-8.275c0-0.737-0.049-1.183-0.164-1.334c-0.109-0.154-0.44-0.246-0.998-0.282l-0.159-0.017
		v-0.768h3.772v8.174h0.415l1.851-1.878c0.744-0.698,1.116-1.148,1.116-1.354c0-0.123-0.239-0.191-0.718-0.191h-0.161v-0.765h3.559
		v0.765l-0.146,0.011c-0.487,0.034-0.839,0.11-1.057,0.237c-0.213,0.123-0.75,0.583-1.618,1.379l-1.084,1.118l2.437,3.187
		c0.607,0.742,1.022,1.188,1.232,1.342c0.212,0.15,0.522,0.241,0.945,0.272l0.158,0.007v0.775h-3.658l-2.882-4.395H125.953z"/>
	<path clip-path="url(#SVGID_11_)" fill="#0064A8" d="M142.438,32.709v2.632c0,0.748,0.059,1.191,0.182,1.338
		c0.116,0.142,0.517,0.238,1.193,0.277l0.153,0.007v0.774h-5.305v-0.774l0.157-0.007c0.557-0.039,0.889-0.131,1.002-0.284
		c0.109-0.15,0.163-0.595,0.163-1.331v-7.468c0-0.736-0.054-1.178-0.163-1.324c-0.101-0.152-0.441-0.248-1.002-0.295l-0.157-0.008
		v-0.765h3.776l1.582-0.041l0.698-0.022c2.412,0,3.616,1.083,3.616,3.245c0,1.349-0.426,2.358-1.285,3.033
		c-0.852,0.675-2.141,1.013-3.853,1.013H142.438z M142.438,31.896h0.488c0.942,0,1.643-0.253,2.114-0.763
		c0.464-0.505,0.703-1.269,0.703-2.274c0-1.713-0.804-2.567-2.407-2.567h-0.898V31.896z"/>
	<path clip-path="url(#SVGID_11_)" fill="#0064A8" d="M155.772,37.736v-1.714c-0.369,0.638-0.817,1.117-1.335,1.439
		c-0.519,0.323-1.111,0.483-1.78,0.483c-0.812,0-1.446-0.258-1.914-0.766c-0.46-0.508-0.693-1.207-0.693-2.099v-4.036
		c0-0.743-0.059-1.184-0.169-1.335c-0.107-0.157-0.441-0.253-1.006-0.289l-0.151-0.011v-0.767h3.774v6.152
		c0,0.638,0.083,1.072,0.249,1.315c0.166,0.238,0.462,0.356,0.889,0.356c0.389,0,0.764-0.11,1.121-0.34
		c0.359-0.229,0.698-0.559,1.016-1.006v-4.076c0-0.743-0.057-1.184-0.166-1.335c-0.115-0.157-0.449-0.253-1.008-0.289l-0.152-0.011
		v-0.767h3.774v6.693c0,0.736,0.059,1.181,0.169,1.335c0.114,0.15,0.445,0.246,1.003,0.285l0.156,0.008v0.772H155.772z"/>
	<path clip-path="url(#SVGID_11_)" fill="#0064A8" d="M165.703,36.683c-0.438,0.421-0.884,0.735-1.335,0.947
		c-0.461,0.206-0.925,0.315-1.401,0.315c-0.804,0-1.475-0.255-2.004-0.754c-0.527-0.498-0.794-1.13-0.794-1.892
		c0-0.89,0.339-1.597,1.01-2.123c0.399-0.328,0.882-0.546,1.435-0.675c0.554-0.122,1.33-0.185,2.336-0.185h0.415v-1.101
		c0-0.779-0.104-1.308-0.298-1.587c-0.19-0.283-0.557-0.423-1.088-0.423c-0.646,0-1.133,0.174-1.458,0.517
		c-0.107,0.113-0.187,0.482-0.213,1.112l-0.007,0.162h-1.338V29.16c1.052-0.484,2.146-0.728,3.288-0.728
		c1.149,0,2.028,0.24,2.645,0.716c0.61,0.474,0.915,1.155,0.915,2.045v3.992c0,0.705,0.059,1.188,0.16,1.442
		c0.096,0.258,0.29,0.387,0.567,0.387c0.081,0,0.187-0.017,0.29-0.05l0.109,0.772c-0.422,0.139-0.837,0.209-1.247,0.209
		c-0.448,0-0.832-0.109-1.164-0.315C166.191,37.418,165.913,37.104,165.703,36.683 M165.364,36.076v-3.015h-0.325
		c-0.82,0-1.433,0.167-1.845,0.493c-0.406,0.331-0.616,0.824-0.616,1.478c0,0.489,0.135,0.875,0.396,1.163
		c0.261,0.293,0.612,0.437,1.058,0.437c0.248,0,0.479-0.046,0.702-0.144C164.952,36.401,165.164,36.262,165.364,36.076"/>
	<path clip-path="url(#SVGID_11_)" fill="#0064A8" d="M175.405,37.657c-0.51,0.193-1.014,0.287-1.506,0.287
		c-1.02,0-1.787-0.257-2.3-0.761c-0.505-0.504-0.762-1.262-0.762-2.272V29.46h-1.131v-0.817h1.131v-1.534l2.451-0.431v1.965h2.014
		v0.817h-2.014v5.509c0,0.813,0.083,1.345,0.239,1.603c0.158,0.264,0.483,0.392,0.996,0.392c0.271,0,0.569-0.061,0.881-0.19V37.657z
		"/>
	<path clip-path="url(#SVGID_11_)" fill="#0064A8" d="M45.356,47.165v3.62c0,0.737,0.052,1.181,0.164,1.33
		c0.111,0.15,0.448,0.244,1.003,0.283l0.157,0.01v0.772h-5.205v-0.772l0.153-0.01c0.556-0.039,0.893-0.133,1.003-0.283
		c0.114-0.149,0.165-0.593,0.165-1.33v-7.474c0-0.736-0.05-1.173-0.165-1.326c-0.104-0.146-0.441-0.243-1.003-0.289l-0.153-0.006
		v-0.77h5.205v0.77l-0.157,0.006c-0.562,0.046-0.897,0.144-1.007,0.289c-0.108,0.153-0.16,0.59-0.16,1.326v2.982h5.06v-2.982
		c0-0.736-0.058-1.173-0.162-1.326c-0.11-0.146-0.443-0.243-1.008-0.289l-0.159-0.006v-0.77h5.207v0.77l-0.142,0.006
		c-0.568,0.046-0.906,0.144-1.016,0.289c-0.11,0.153-0.165,0.59-0.165,1.326v7.474c0,0.737,0.057,1.181,0.17,1.33
		c0.106,0.15,0.448,0.244,1.011,0.283l0.142,0.01v0.772h-5.207v-0.772l0.159-0.01c0.561-0.039,0.895-0.133,1.006-0.283
		c0.104-0.149,0.164-0.593,0.164-1.33v-3.62H45.356z"/>
	<path clip-path="url(#SVGID_11_)" fill="#0064A8" d="M59.91,53.386c-1.473,0-2.627-0.426-3.466-1.271
		c-0.846-0.848-1.266-2.009-1.266-3.483s0.42-2.637,1.266-3.483c0.839-0.849,1.993-1.272,3.466-1.272
		c1.456,0,2.611,0.424,3.456,1.272c0.839,0.847,1.264,2.009,1.264,3.483s-0.425,2.636-1.264,3.483
		C62.521,52.96,61.366,53.386,59.91,53.386 M59.91,52.512c0.672,0,1.179-0.321,1.508-0.969c0.333-0.654,0.5-1.619,0.5-2.912
		c0-1.301-0.167-2.271-0.5-2.915c-0.329-0.648-0.836-0.972-1.508-0.972c-0.68,0-1.183,0.323-1.52,0.972
		c-0.334,0.645-0.505,1.614-0.505,2.915c0,1.293,0.171,2.258,0.505,2.912C58.727,52.19,59.229,52.512,59.91,52.512"/>
	<path clip-path="url(#SVGID_11_)" fill="#0064A8" d="M66.053,52.762v-2.344h1.117l0.009,0.148c0.031,0.689,0.135,1.125,0.305,1.319
		c0.444,0.486,1.101,0.731,1.97,0.731c0.419,0,0.783-0.137,1.074-0.41c0.289-0.268,0.434-0.604,0.434-0.999
		c0-0.615-0.517-1.129-1.549-1.537l-0.75-0.295c-1.743-0.69-2.61-1.621-2.61-2.788c0-0.835,0.337-1.491,1.002-1.978
		c0.677-0.489,1.579-0.733,2.72-0.733c0.904,0,1.846,0.145,2.829,0.43v2.18h-1.13l-0.009-0.155l-0.016-0.401
		c0-0.855-0.493-1.284-1.495-1.284c-0.431,0-0.801,0.146-1.105,0.424c-0.302,0.283-0.455,0.627-0.455,1.036
		c0,0.339,0.117,0.612,0.34,0.803c0.22,0.203,0.679,0.426,1.379,0.696l0.742,0.291c1.694,0.647,2.54,1.521,2.54,2.614
		c0,0.833-0.36,1.523-1.072,2.065c-0.72,0.538-1.63,0.811-2.739,0.811C68.215,53.386,67.036,53.178,66.053,52.762"/>
	<path clip-path="url(#SVGID_11_)" fill="#0064A8" d="M78.007,52.257v1.789c0,0.732,0.058,1.183,0.172,1.335
		c0.114,0.156,0.446,0.254,1.002,0.293l0.155,0.002v0.772h-5.104v-0.772l0.159-0.002c0.558-0.039,0.892-0.137,1.001-0.293
		c0.116-0.146,0.169-0.594,0.169-1.335v-7.56c0-0.74-0.053-1.187-0.169-1.338c-0.109-0.146-0.443-0.245-1.001-0.286l-0.159-0.007
		v-0.771h3.775v1.711c0.346-0.64,0.768-1.116,1.275-1.436c0.499-0.324,1.085-0.485,1.752-0.485c1.034,0,1.854,0.407,2.463,1.228
		c0.613,0.813,0.915,1.922,0.915,3.3c0,1.519-0.344,2.724-1.034,3.627c-0.687,0.901-1.605,1.356-2.757,1.356
		c-0.494,0-0.958-0.096-1.389-0.282C78.797,52.917,78.389,52.634,78.007,52.257 M78.007,51.34c0.324,0.295,0.635,0.51,0.931,0.653
		c0.297,0.151,0.583,0.223,0.858,0.223c0.669,0,1.169-0.296,1.504-0.889c0.334-0.594,0.507-1.482,0.507-2.665
		c0-1.068-0.149-1.872-0.445-2.406c-0.295-0.531-0.741-0.796-1.336-0.796c-0.349,0-0.69,0.1-1.032,0.292
		c-0.336,0.207-0.663,0.5-0.987,0.898V51.34z"/>
	<path clip-path="url(#SVGID_11_)" fill="#0064A8" d="M89.116,44.085v6.692c0,0.741,0.058,1.188,0.167,1.336
		c0.113,0.149,0.45,0.246,1.006,0.288l0.154,0.008v0.771h-5.104v-0.771l0.157-0.008c0.557-0.042,0.896-0.139,1.004-0.288
		c0.107-0.148,0.164-0.595,0.164-1.336v-4.29c0-0.739-0.057-1.188-0.164-1.34c-0.108-0.146-0.447-0.245-1.004-0.284l-0.157-0.009
		v-0.77H89.116z M86.664,40.102h2.453v2.45h-2.453V40.102z"/>
	<path clip-path="url(#SVGID_11_)" fill="#0064A8" d="M96.758,53.103c-0.514,0.188-1.014,0.283-1.505,0.283
		c-1.02,0-1.79-0.253-2.299-0.761c-0.51-0.503-0.767-1.265-0.767-2.271v-5.452h-1.122v-0.817h1.122v-1.531l2.453-0.433v1.964h2.013
		v0.817h-2.013v5.513c0,0.805,0.079,1.345,0.242,1.604c0.163,0.26,0.493,0.391,0.995,0.391c0.274,0,0.565-0.064,0.88-0.193V53.103z"
		/>
	<path clip-path="url(#SVGID_11_)" fill="#0064A8" d="M103.081,52.126c-0.436,0.419-0.884,0.736-1.343,0.944
		c-0.452,0.21-0.914,0.314-1.388,0.314c-0.81,0-1.479-0.25-2.01-0.751c-0.526-0.5-0.787-1.13-0.787-1.889
		c0-0.893,0.329-1.603,1.001-2.132c0.405-0.315,0.884-0.542,1.435-0.664c0.551-0.128,1.329-0.187,2.339-0.187h0.409v-1.102
		c0-0.781-0.097-1.31-0.286-1.594c-0.205-0.274-0.566-0.423-1.094-0.423c-0.646,0-1.133,0.176-1.455,0.524
		c-0.112,0.113-0.182,0.481-0.215,1.111l-0.011,0.157h-1.336v-1.845c1.049-0.477,2.147-0.717,3.288-0.717
		c1.149,0,2.028,0.238,2.646,0.712c0.61,0.474,0.918,1.159,0.918,2.045v3.993c0,0.709,0.054,1.188,0.163,1.442
		c0.096,0.263,0.287,0.391,0.564,0.391c0.081,0,0.179-0.014,0.288-0.049l0.107,0.769c-0.425,0.135-0.837,0.206-1.252,0.206
		c-0.442,0-0.835-0.104-1.16-0.314C103.569,52.862,103.293,52.545,103.081,52.126 M102.737,51.522v-3.016h-0.322
		c-0.814,0-1.427,0.165-1.839,0.488c-0.413,0.335-0.615,0.826-0.615,1.48c0,0.486,0.126,0.877,0.393,1.166
		c0.259,0.29,0.608,0.434,1.057,0.434c0.247,0,0.479-0.045,0.699-0.142C102.331,51.84,102.543,51.702,102.737,51.522"/>
	<path clip-path="url(#SVGID_11_)" fill="#0064A8" d="M110.658,40.101v10.678c0,0.738,0.059,1.186,0.171,1.335
		c0.107,0.148,0.44,0.246,0.996,0.288l0.16,0.009v0.77h-5.104v-0.77l0.156-0.009c0.562-0.042,0.892-0.14,1.004-0.288
		c0.107-0.149,0.166-0.597,0.166-1.335v-8.279c0-0.735-0.059-1.179-0.166-1.331c-0.112-0.156-0.442-0.247-1.004-0.281l-0.156-0.02
		v-0.767H110.658z"/>
	<rect x="41.475" y="58.705" clip-path="url(#SVGID_11_)" fill="#0064A8" width="134.569" height="1.511"/>
	<path clip-path="url(#SVGID_11_)" fill="#0064A8" d="M46.125,69.234v-6.072h-1.185v3.719l-2.407-3.719h-1.058v6.072h1.188v-3.728
		l2.405,3.728H46.125z M50.649,69.234v-2.927c0-1.038-0.65-1.569-1.896-1.569c-0.741,0-1.171,0.138-1.605,0.616l0.707,0.69
		c0.23-0.264,0.429-0.364,0.855-0.364c0.589,0,0.829,0.21,0.829,0.699v0.22h-1.052c-1.03,0-1.517,0.58-1.517,1.288
		c0,0.393,0.129,0.752,0.367,0.998c0.265,0.264,0.632,0.394,1.136,0.394c0.511,0,0.791-0.13,1.091-0.426v0.381H50.649z
		 M49.539,67.601c0,0.271-0.042,0.449-0.164,0.559c-0.194,0.19-0.391,0.213-0.699,0.213c-0.432,0-0.639-0.202-0.639-0.509
		c0-0.316,0.221-0.505,0.623-0.505h0.879V67.601z M53.667,69.234v-0.938h-0.402c-0.265,0-0.383-0.143-0.383-0.4v-2.133h0.785v-0.846
		h-0.785v-1.313h-1.109v1.313h-0.469v0.846h0.469v2.2c0,0.632,0.384,1.271,1.29,1.271H53.667z M55.62,63.127h-1.134v0.906h1.134
		V63.127z M55.613,64.788H54.5v4.446h1.112V64.788z M60.255,67.009c0-0.803-0.102-1.304-0.504-1.725
		c-0.273-0.291-0.726-0.546-1.381-0.546c-0.66,0-1.1,0.255-1.376,0.546c-0.398,0.421-0.503,0.922-0.503,1.725
		c0,0.811,0.105,1.314,0.503,1.73c0.276,0.292,0.716,0.548,1.376,0.548c0.655,0,1.108-0.256,1.381-0.548
		C60.153,68.323,60.255,67.819,60.255,67.009 M59.146,67.009c0,0.463-0.026,0.854-0.256,1.081c-0.13,0.13-0.3,0.197-0.52,0.197
		c-0.224,0-0.385-0.067-0.512-0.197c-0.231-0.227-0.258-0.618-0.258-1.081c0-0.46,0.027-0.844,0.258-1.074
		c0.127-0.128,0.288-0.196,0.512-0.196c0.22,0,0.39,0.068,0.52,0.196C59.12,66.165,59.146,66.549,59.146,67.009 M64.834,69.234
		v-2.839c0-0.487-0.095-0.904-0.452-1.265c-0.248-0.246-0.606-0.393-1.048-0.393c-0.408,0-0.819,0.155-1.109,0.461v-0.411h-1.085
		v4.446h1.11v-2.686c0-0.605,0.393-0.811,0.741-0.811c0.354,0,0.737,0.205,0.737,0.811v2.686H64.834z M69.22,69.234v-2.927
		c0-1.038-0.645-1.569-1.893-1.569c-0.739,0-1.167,0.138-1.605,0.616l0.709,0.69c0.23-0.264,0.428-0.364,0.853-0.364
		c0.59,0,0.827,0.21,0.827,0.699v0.22h-1.05c-1.031,0-1.516,0.58-1.516,1.288c0,0.393,0.129,0.752,0.365,0.998
		c0.268,0.264,0.634,0.394,1.139,0.394c0.508,0,0.793-0.13,1.088-0.426v0.381H69.22z M68.111,67.601
		c0,0.271-0.041,0.449-0.161,0.559c-0.197,0.19-0.393,0.213-0.699,0.213c-0.435,0-0.642-0.202-0.642-0.509
		c0-0.316,0.222-0.505,0.626-0.505h0.876V67.601z M72.13,69.234v-0.938h-0.429c-0.276,0-0.388-0.137-0.388-0.4v-4.733h-1.112v4.801
		c0,0.632,0.385,1.271,1.298,1.271H72.13z M79.171,69.234v-6.072h-1.186v2.482h-2.057v-2.482H74.74v6.072h1.188v-2.54h2.057v2.54
		H79.171z M83.984,67.358v-0.494c0-1.22-0.701-2.126-1.938-2.126c-1.154,0-1.937,0.821-1.937,2.271c0,1.801,1.008,2.278,2.057,2.278
		c0.803,0,1.239-0.247,1.688-0.699l-0.674-0.656c-0.283,0.279-0.519,0.418-1.006,0.418c-0.624,0-0.972-0.418-0.972-0.991H83.984z
		 M82.888,66.6h-1.686c0.005-0.198,0.034-0.316,0.098-0.479c0.124-0.263,0.37-0.462,0.746-0.462c0.378,0,0.624,0.199,0.741,0.462
		C82.854,66.283,82.884,66.401,82.888,66.6 M88.198,69.234v-2.927c0-1.038-0.652-1.569-1.898-1.569c-0.74,0-1.166,0.138-1.601,0.616
		l0.708,0.69c0.232-0.264,0.424-0.364,0.853-0.364c0.59,0,0.83,0.21,0.83,0.699v0.22h-1.054c-1.03,0-1.516,0.58-1.516,1.288
		c0,0.393,0.127,0.752,0.365,0.998c0.265,0.264,0.634,0.394,1.135,0.394c0.517,0,0.795-0.13,1.093-0.426v0.381H88.198z
		 M87.09,67.601c0,0.271-0.047,0.449-0.165,0.559c-0.194,0.19-0.388,0.213-0.699,0.213c-0.434,0-0.638-0.202-0.638-0.509
		c0-0.316,0.222-0.505,0.622-0.505h0.88V67.601z M91.104,69.234v-0.938H90.68c-0.281,0-0.393-0.137-0.393-0.4v-4.733H89.18v4.801
		c0,0.632,0.384,1.271,1.296,1.271H91.104z M93.819,69.234v-0.938h-0.401c-0.263,0-0.386-0.143-0.386-0.4v-2.133h0.787v-0.846
		h-0.787v-1.313h-1.109v1.313h-0.467v0.846h0.467v2.2c0,0.632,0.388,1.271,1.29,1.271H93.819z M98.314,69.234V66.36
		c0-0.939-0.51-1.622-1.485-1.622c-0.39,0-0.769,0.155-1.066,0.461v-2.037h-1.104v6.072h1.104v-2.713
		c0-0.578,0.369-0.783,0.721-0.783c0.346,0,0.723,0.196,0.723,0.783v2.713H98.314z M102.573,68.683l-0.75-0.742
		c-0.231,0.246-0.425,0.347-0.719,0.347c-0.264,0-0.467-0.093-0.63-0.287c-0.168-0.214-0.246-0.521-0.246-0.991
		c0-0.469,0.078-0.771,0.246-0.98c0.163-0.197,0.366-0.29,0.63-0.29c0.294,0,0.487,0.102,0.719,0.35l0.75-0.751
		c-0.392-0.412-0.855-0.599-1.469-0.599c-0.887,0-1.988,0.47-1.988,2.271s1.102,2.278,1.988,2.278
		C101.718,69.287,102.182,69.092,102.573,68.683 M106.588,69.234v-2.927c0-1.038-0.645-1.569-1.893-1.569
		c-0.743,0-1.169,0.138-1.604,0.616l0.709,0.69c0.23-0.264,0.429-0.364,0.854-0.364c0.589,0,0.83,0.21,0.83,0.699v0.22h-1.053
		c-1.032,0-1.518,0.58-1.518,1.288c0,0.393,0.126,0.752,0.366,0.998c0.263,0.264,0.632,0.394,1.135,0.394
		c0.508,0,0.794-0.13,1.094-0.426v0.381H106.588z M105.484,67.601c0,0.271-0.049,0.449-0.166,0.559
		c-0.198,0.19-0.396,0.213-0.698,0.213c-0.438,0-0.643-0.202-0.643-0.509c0-0.316,0.226-0.505,0.623-0.505h0.884V67.601z
		 M110.868,65.158c-0.308-0.308-0.618-0.42-1.053-0.42c-0.479,0-0.903,0.223-1.117,0.48v-0.431h-1.085v4.446h1.111v-2.677
		c0-0.564,0.373-0.819,0.712-0.819c0.279,0,0.42,0.093,0.592,0.265L110.868,65.158z M114.71,67.358v-0.494
		c0-1.22-0.698-2.126-1.936-2.126c-1.15,0-1.937,0.821-1.937,2.271c0,1.801,1.009,2.278,2.059,2.278
		c0.802,0,1.235-0.247,1.688-0.699l-0.67-0.656c-0.285,0.279-0.525,0.418-1.008,0.418c-0.625,0-0.975-0.418-0.975-0.991H114.71z
		 M113.622,66.6h-1.69c0.008-0.198,0.035-0.316,0.101-0.479c0.119-0.263,0.368-0.462,0.742-0.462c0.376,0,0.622,0.199,0.743,0.462
		C113.588,66.283,113.611,66.401,113.622,66.6 M121.786,66.743v-0.885h-2.296v0.991h1.119v0.229c0,0.313-0.08,0.587-0.275,0.81
		c-0.193,0.216-0.487,0.341-0.844,0.341c-0.322,0-0.588-0.12-0.759-0.313c-0.229-0.258-0.289-0.549-0.289-1.717
		s0.06-1.451,0.289-1.706c0.171-0.196,0.437-0.325,0.759-0.325c0.606,0,0.954,0.317,1.093,0.889h1.193
		c-0.156-1.024-0.879-1.945-2.286-1.945c-0.682,0-1.213,0.239-1.638,0.664c-0.612,0.617-0.599,1.375-0.599,2.424
		s-0.014,1.811,0.599,2.424c0.425,0.425,0.974,0.665,1.638,0.665c0.65,0,1.229-0.187,1.715-0.692
		C121.633,68.153,121.786,67.621,121.786,66.743 M125.982,65.158c-0.305-0.308-0.609-0.42-1.047-0.42
		c-0.477,0-0.908,0.223-1.118,0.48v-0.431h-1.082v4.446h1.108v-2.677c0-0.564,0.374-0.819,0.715-0.819
		c0.274,0,0.417,0.093,0.589,0.265L125.982,65.158z M129.755,67.009c0-0.803-0.099-1.304-0.507-1.725
		c-0.27-0.291-0.722-0.546-1.378-0.546c-0.655,0-1.102,0.255-1.375,0.546c-0.402,0.421-0.504,0.922-0.504,1.725
		c0,0.811,0.102,1.314,0.504,1.73c0.273,0.292,0.72,0.548,1.375,0.548c0.656,0,1.108-0.256,1.378-0.548
		C129.656,68.323,129.755,67.819,129.755,67.009 M128.646,67.009c0,0.463-0.026,0.854-0.254,1.081
		c-0.133,0.13-0.3,0.197-0.522,0.197s-0.384-0.067-0.51-0.197c-0.235-0.227-0.257-0.618-0.257-1.081c0-0.46,0.021-0.844,0.257-1.074
		c0.126-0.128,0.287-0.196,0.51-0.196s0.39,0.068,0.522,0.196C128.62,66.165,128.646,66.549,128.646,67.009 M134.283,69.234v-4.446
		h-1.105v2.691c0,0.605-0.396,0.808-0.742,0.808c-0.352,0-0.738-0.202-0.738-0.808v-2.691h-1.104v2.844
		c0,0.484,0.09,0.905,0.451,1.263c0.246,0.247,0.604,0.393,1.05,0.393c0.41,0,0.82-0.155,1.11-0.459v0.406H134.283z M139.079,67.009
		c0-0.665-0.008-1.426-0.45-1.867c-0.249-0.248-0.646-0.403-1.086-0.403c-0.467,0-0.802,0.13-1.109,0.47v-0.42h-1.071v6.078h1.109
		v-2.021c0.29,0.322,0.622,0.442,1.071,0.442c0.439,0,0.837-0.155,1.086-0.401C139.071,68.441,139.079,67.674,139.079,67.009
		 M137.97,67.009c0,0.726-0.087,1.278-0.747,1.278c-0.669,0-0.751-0.553-0.751-1.278s0.082-1.271,0.751-1.271
		C137.883,65.738,137.97,66.283,137.97,67.009"/>
</g>
</svg>
