<svg width="16" height="16" viewBox="0 0 16 16" fill="none" xmlns="http://www.w3.org/2000/svg">
<path d="M8.66664 10.6667C9.19707 10.6667 9.70578 10.8774 10.0809 11.2525C10.4559 11.6275 10.6666 12.1362 10.6666 12.6667C10.6666 13.1971 10.4559 13.7058 10.0809 14.0809C9.70578 14.456 9.19707 14.6667 8.66664 14.6667H4.66664C4.03595 14.6665 3.41824 14.4875 2.88525 14.1503C2.35227 13.8131 1.92587 13.3317 1.65559 12.7618C1.38531 12.192 1.28224 11.5572 1.35835 10.9311C1.43445 10.305 1.68661 9.71337 2.08555 9.22489C2.48448 8.7364 3.01381 8.37111 3.61205 8.17145C4.2103 7.97178 4.85292 7.94594 5.46527 8.09692C6.07762 8.24789 6.63457 8.5695 7.07144 9.02437C7.50831 9.47924 7.80717 10.0487 7.93331 10.6667H8.66664Z" stroke="black" stroke-width="0.666667" stroke-linecap="round" stroke-linejoin="round"/>
<path d="M6.73334 5.99996C6.89057 5.06971 7.37156 4.22498 8.09131 3.61503C8.81105 3.00507 9.72323 2.66915 10.6667 2.66663C10.1362 3.19706 9.83824 3.91648 9.83824 4.66663C9.83824 5.03806 9.9114 5.40586 10.0535 5.74902C10.1957 6.09218 10.404 6.40398 10.6667 6.66663C10.9293 6.92927 11.2411 7.13761 11.5843 7.27975C11.9274 7.42189 12.2952 7.49505 12.6667 7.49505C13.4168 7.49505 14.1362 7.19706 14.6667 6.66663C14.6668 7.36887 14.482 8.05876 14.1309 8.66695C13.7798 9.27513 13.2748 9.78017 12.6667 10.1313" stroke="black" stroke-width="0.666667" stroke-linecap="round" stroke-linejoin="round"/>
</svg>
