<svg width="96" height="96" xmlns="http://www.w3.org/2000/svg" xmlns:xlink="http://www.w3.org/1999/xlink" xml:space="preserve" overflow="hidden"><g transform="translate(-592 -312)"><path d="M609.531 372.676C609.283 372.082 609.052 371.48 608.839 370.869L606.95 371.527C607.177 372.177 607.423 372.817 607.686 373.447Z"/><path d="M611.723 377C611.39 376.447 611.072 375.885 610.771 375.313L609 376.238C609.319 376.846 609.655 377.443 610.01 378.029Z"/><path d="M614.522 380.951C614.111 380.453 613.715 379.942 613.333 379.419L611.718 380.6C612.123 381.154 612.544 381.696 612.979 382.226Z"/><path d="M605.174 363.509 607.164 363.309C607.097 362.669 607.052 362.024 607.027 361.375L605.027 361.457C605.058 362.145 605.105 362.83 605.174 363.509Z"/><path d="M607.613 353.65C607.738 353.013 607.882 352.381 608.042 351.758L606.104 351.258C605.935 351.918 605.784 352.587 605.65 353.264Z"/><path d="M609.085 343.6 610.851 344.541C611.155 343.968 611.476 343.405 611.813 342.854L610.106 341.813C609.75 342.396 609.41 342.992 609.085 343.6Z"/><path d="M607.036 358.464C607.066 357.813 607.115 357.168 607.183 356.527L605.192 356.32C605.122 356.997 605.07 357.682 605.038 358.37Z"/><path d="M607.009 348.307 608.894 348.977C609.111 348.364 609.346 347.76 609.599 347.165L607.757 346.386C607.489 347.017 607.24 347.658 607.009 348.307Z"/><path d="M613.1 337.631C612.661 338.157 612.237 338.697 611.829 339.25L613.438 340.438C613.823 339.916 614.223 339.407 614.638 338.91Z"/><path d="M606.062 368.573 608 368.081C607.842 367.458 607.7 366.827 607.581 366.19L605.616 366.562C605.745 367.239 605.893 367.91 606.062 368.573Z"/><path d="M630.437 391.587C629.814 391.398 629.2 391.191 628.594 390.968L627.9 392.845C628.543 393.082 629.195 393.3 629.854 393.501Z"/><path d="M625.221 328.275C624.598 328.566 623.986 328.875 623.384 329.201L624.337 330.959C624.903 330.652 625.479 330.362 626.066 330.088Z"/><path d="M630.022 326.448C629.362 326.648 628.71 326.864 628.067 327.095L628.753 328.974C629.353 328.753 629.972 328.551 630.593 328.366Z"/><path d="M633.255 392.308 632.849 394.267C633.516 394.405 634.191 394.525 634.874 394.626L635.165 392.647C634.522 392.553 633.886 392.438 633.255 392.308Z"/><path d="M635.046 325.35C634.364 325.447 633.689 325.564 633.02 325.699L633.42 327.66C634.052 327.531 634.691 327.422 635.333 327.33Z"/><path d="M616.668 333.931C616.157 334.389 615.66 334.861 615.178 335.347L616.596 336.757C617.053 336.298 617.523 335.852 618.004 335.419Z"/><path d="M625.911 389.839C625.325 389.562 624.749 389.268 624.183 388.957L623.22 390.709C623.82 391.042 624.432 391.355 625.056 391.647Z"/><path d="M617.871 384.461C617.392 384.026 616.926 383.578 616.471 383.117L615.043 384.517C615.523 385.007 616.02 385.482 616.528 385.942Z"/><path d="M621.693 387.445C621.155 387.085 620.628 386.709 620.113 386.318L618.9 387.912C619.447 388.327 620.006 388.725 620.578 389.107Z"/><path d="M620.737 330.789C620.165 331.167 619.605 331.562 619.056 331.974L620.256 333.574C620.771 333.187 621.301 332.814 621.84 332.458Z"/><path d="M640 398C660.987 398 678 380.987 678 360 678 339.013 660.987 322 640 322 639.448 322 639 322.448 639 323L639 397C639 397.552 639.448 398 640 398ZM641 324.014C660.875 324.568 676.536 341.129 675.982 361.004 675.449 380.099 660.095 395.453 641 395.986Z"/></g></svg>