<svg width="16" height="16" viewBox="0 0 16 16" fill="none" xmlns="http://www.w3.org/2000/svg">
<path d="M11.0031 4.46575L10.8875 4.35013C10.7813 4.24388 10.7813 4.07513 10.8844 3.96888L10.9781 3.87513C11.0844 3.76888 11.2531 3.76888 11.3594 3.872L11.475 3.98763C11.5813 4.09388 11.5813 4.26263 11.4781 4.36888L11.3844 4.46263C11.2781 4.56888 11.1094 4.56888 11.0031 4.46575Z" fill="white"/>
<path d="M11.1688 3.55945C11.3031 3.55945 11.4281 3.61257 11.5219 3.70632L11.6375 3.82195C11.8344 4.01882 11.8375 4.33757 11.6406 4.53445L11.5469 4.6282C11.4531 4.72507 11.325 4.7782 11.1906 4.7782C11.0563 4.7782 10.9281 4.7282 10.8344 4.63132L10.7188 4.5157C10.5219 4.31882 10.5188 4.00007 10.7156 3.8032L10.8094 3.70945C10.9031 3.61257 11.0313 3.55945 11.1688 3.55945C11.1656 3.55945 11.1656 3.55945 11.1688 3.55945ZM11.1906 4.30945C11.1969 4.30945 11.2063 4.30632 11.2156 4.30007L11.3094 4.20632C11.3188 4.19695 11.3188 4.18757 11.3188 4.18132C11.3188 4.17507 11.3156 4.1657 11.3094 4.15632L11.1938 4.0407C11.1844 4.03132 11.175 4.0282 11.1688 4.03132C11.1625 4.03132 11.1531 4.03445 11.1438 4.0407L11.05 4.13445C11.0375 4.15007 11.0375 4.17195 11.05 4.18445L11.1656 4.30007C11.175 4.30632 11.1844 4.30945 11.1906 4.30945Z" fill="black"/>
<path d="M4.27188 9.91882C4.4 9.91882 4.51563 9.96882 4.60313 10.0563L5.3375 10.7813C5.52188 10.9657 5.525 11.2688 5.34063 11.4532L3.4125 13.4126C3.325 13.5032 3.20313 13.5532 3.07813 13.5532H3.075C2.94688 13.5532 2.83125 13.5032 2.74375 13.4157L2.00938 12.6907C1.825 12.5063 1.82188 12.2032 2.00625 12.0188L3.94063 10.0594C4.025 9.96882 4.14375 9.91882 4.27188 9.91882ZM3.075 13.1126C3.08125 13.1126 3.09063 13.1094 3.1 13.1032L5.03438 11.1438C5.04688 11.1282 5.04688 11.1094 5.03438 11.0969L4.3 10.3719C4.29063 10.3626 4.28125 10.3626 4.275 10.3626C4.26875 10.3626 4.25938 10.3657 4.25 10.3719L2.31563 12.3313C2.30313 12.3469 2.30313 12.3657 2.31563 12.3782L3.05 13.1032C3.05625 13.1094 3.06875 13.1126 3.075 13.1126Z" fill="black"/>
<path d="M3.81562 8.26562C3.94687 8.26562 4.07187 8.31562 4.1625 8.40625L5.58125 9.80625C5.67187 9.89687 5.675 10.0469 5.58437 10.1375C5.49375 10.2281 5.34375 10.2313 5.25312 10.1406L3.83437 8.74063C3.82812 8.73438 3.81875 8.73438 3.8125 8.73438C3.79687 8.73438 3.78125 8.74375 3.76875 8.75625L3.57187 8.95312C3.54687 8.97813 3.54687 9.00938 3.55625 9.01875L6.39062 11.8188C6.4 11.8281 6.43125 11.8281 6.45625 11.8031L6.65312 11.6062C6.67812 11.5812 6.67812 11.55 6.66875 11.5406L5.86562 10.75C5.775 10.6594 5.77187 10.5094 5.8625 10.4187C5.95312 10.3281 6.10312 10.325 6.19375 10.4156L6.99687 11.2063C7.19375 11.4031 7.19062 11.7281 6.9875 11.9344L6.79062 12.1313C6.5875 12.3375 6.25937 12.3469 6.0625 12.15L3.22812 9.35C3.03125 9.15313 3.03437 8.82812 3.2375 8.62187L3.43437 8.425C3.53125 8.32813 3.65625 8.27188 3.79062 8.26562C3.8 8.26875 3.80625 8.26562 3.81562 8.26562Z" fill="black"/>
<path d="M3.23125 14.0968C3.1 14.2281 2.90938 14.25 2.80313 14.1437L2.49375 13.8375L2.20938 13.5562L1.9125 13.2656L1.275 12.6375C1.16875 12.5312 1.1875 12.3406 1.31875 12.2093C1.45 12.0781 1.64063 12.0562 1.74688 12.1625L3.275 13.6718C3.38125 13.775 3.3625 13.9656 3.23125 14.0968Z" fill="white"/>
<path d="M1.575 11.8594C1.70313 11.8594 1.825 11.9062 1.9125 11.9937L3.4375 13.5031C3.5375 13.6031 3.5875 13.7469 3.57188 13.8969C3.55938 14.0313 3.49688 14.1594 3.39688 14.2625C3.29688 14.3656 3.16875 14.4281 3.03438 14.4438C2.88438 14.4594 2.74063 14.4125 2.6375 14.3125L1.10938 12.8031C0.9125 12.6063 0.93125 12.2656 1.15 12.0437C1.25 11.9406 1.37813 11.8781 1.5125 11.8625C1.5375 11.8594 1.55625 11.8594 1.575 11.8594ZM2.96875 13.975C2.98125 13.9781 3.025 13.975 3.06563 13.9312C3.10938 13.8875 3.1125 13.8438 3.10938 13.8344L1.58438 12.3281C1.57188 12.325 1.53125 12.3281 1.4875 12.3719C1.44375 12.4156 1.44063 12.4594 1.44375 12.4688" fill="black"/>
<path d="M10.55 5.25943L10.0687 4.78443C9.9625 4.67818 9.9625 4.50943 10.0656 4.40318L10.3062 4.15943C10.4125 4.05318 10.5812 4.05318 10.6875 4.1563L11.1687 4.6313C11.275 4.73755 11.275 4.9063 11.1719 5.01255L10.9312 5.2563C10.8281 5.36255 10.6562 5.36568 10.55 5.25943Z" fill="white"/>
<path d="M10.5 3.84375C10.6344 3.84375 10.7594 3.89687 10.8531 3.99062L11.3344 4.46562C11.5312 4.6625 11.5344 4.98125 11.3375 5.17812L11.0969 5.42188C10.9 5.61875 10.5812 5.62188 10.3844 5.425L9.90312 4.95C9.80625 4.85625 9.75312 4.72813 9.75312 4.59375C9.75312 4.45937 9.80312 4.33125 9.9 4.2375L10.1406 3.99375C10.2344 3.89688 10.3625 3.84375 10.5 3.84375ZM10.7406 5.10313C10.75 5.10313 10.7594 5.1 10.7656 5.09375L11.0062 4.85C11.0187 4.83437 11.0187 4.8125 11.0062 4.8L10.525 4.325C10.5156 4.31562 10.5062 4.31563 10.5 4.31563C10.4937 4.31563 10.4844 4.31875 10.475 4.325L10.2344 4.56875C10.225 4.57812 10.225 4.5875 10.225 4.59375C10.225 4.6 10.2281 4.60938 10.2344 4.61875L10.7156 5.09375C10.7219 5.1 10.7312 5.10313 10.7406 5.10313Z" fill="black"/>
<path d="M13.9812 1.09692C14.0406 1.09692 14.1 1.1188 14.1469 1.16567C14.2375 1.2563 14.2406 1.4063 14.15 1.49692L11.6062 4.0688C11.5156 4.15942 11.3656 4.16255 11.275 4.07192C11.1844 3.9813 11.1812 3.8313 11.2719 3.74067L13.8156 1.16567C13.8594 1.12192 13.9219 1.09692 13.9812 1.09692Z" fill="black"/>
<path d="M9.10938 5.06885C9.16875 5.06885 9.22813 5.09072 9.275 5.1376L9.93125 5.79385C10.0219 5.88447 10.0219 6.03447 9.93125 6.1251C9.84062 6.21572 9.69063 6.21572 9.6 6.1251L8.94375 5.46885C8.85313 5.37822 8.85313 5.22822 8.94375 5.1376C8.9875 5.09072 9.04688 5.06885 9.10938 5.06885Z" fill="black"/>
<path d="M8.4625 5.7157C8.52188 5.7157 8.58125 5.73757 8.62813 5.78445L9.28438 6.4407C9.375 6.53132 9.375 6.68132 9.28438 6.77195C9.19375 6.86257 9.04375 6.86257 8.95313 6.77195L8.29688 6.1157C8.20625 6.02507 8.20625 5.87507 8.29688 5.78445C8.34063 5.73757 8.40313 5.7157 8.4625 5.7157Z" fill="black"/>
<path d="M7.74375 6.43445C7.80312 6.43445 7.8625 6.45632 7.90937 6.5032L8.56562 7.15945C8.65625 7.25007 8.65625 7.40007 8.56562 7.4907C8.475 7.58132 8.325 7.58132 8.23437 7.4907L7.57812 6.83445C7.4875 6.74382 7.4875 6.59382 7.57812 6.5032C7.625 6.45632 7.68437 6.43445 7.74375 6.43445Z" fill="black"/>
<path d="M7.09688 7.07812C7.15625 7.07812 7.21562 7.1 7.2625 7.14687L7.91875 7.80312C8.00937 7.89375 8.00937 8.04375 7.91875 8.13437C7.82812 8.225 7.67812 8.225 7.5875 8.13437L6.93125 7.47813C6.84063 7.3875 6.84063 7.2375 6.93125 7.14687C6.97813 7.10312 7.0375 7.07812 7.09688 7.07812Z" fill="black"/>
<path d="M4.38125 8.75005L4.72187 9.08442C4.71875 9.07817 4.71875 9.07192 4.71875 9.0688C4.71875 9.06255 4.71875 9.05317 4.72812 9.0438L9.14375 4.55942C9.23437 4.46255 9.39062 4.45942 9.48437 4.55317L10.7844 5.84067C10.8312 5.88755 10.8562 5.94692 10.8562 6.01255C10.8562 6.07817 10.8312 6.13755 10.7844 6.18442L6.36875 10.6688C6.3625 10.675 6.35312 10.6782 6.34375 10.6782C6.34062 10.6782 6.33437 10.6782 6.33125 10.675L6.66875 11.0063C6.675 11 6.68437 10.9938 6.69062 10.9844L11.1062 6.50005C11.2375 6.36567 11.3094 6.18755 11.3094 6.00005C11.3094 5.81255 11.2375 5.63755 11.1062 5.5063L9.80625 4.2188C9.67187 4.08442 9.49375 4.0188 9.31875 4.0188C9.1375 4.0188 8.95625 4.08755 8.81875 4.2313L4.40937 8.7188C4.4 8.72817 4.39062 8.74067 4.38125 8.75005Z" fill="black"/>
</svg>
