<svg width="16" height="16" viewBox="0 0 16 16" fill="none" xmlns="http://www.w3.org/2000/svg">
<path d="M4.08168 12L10.0817 3.27273H11.0533L5.05327 12H4.08168ZM4.03906 7.90909V4.2017H3.99645L2.8544 4.96023V4.05682L4.03906 3.27273H4.92543V7.90909H4.03906ZM9.48509 12V11.3523L11.3089 9.81818C11.5817 9.58807 11.7805 9.39347 11.9055 9.23438C12.0305 9.07528 12.093 8.90625 12.093 8.72727C12.093 8.50568 12.0064 8.32812 11.8331 8.1946C11.6598 8.06108 11.4453 7.99432 11.1896 7.99432C10.9339 7.99432 10.7195 8.06534 10.5462 8.20739C10.3729 8.34659 10.2862 8.53125 10.2862 8.76136H9.43395C9.43395 8.3267 9.5973 7.97443 9.92401 7.70455C10.2507 7.43182 10.6783 7.29545 11.2067 7.29545C11.7351 7.29545 12.157 7.43182 12.4723 7.70455C12.7876 7.97443 12.9453 8.30966 12.9453 8.71023C12.9453 8.91477 12.9041 9.10511 12.8217 9.28125C12.7422 9.45739 12.6115 9.64062 12.4297 9.83097C12.2507 10.0213 12.0135 10.2386 11.718 10.483L10.7805 11.25V11.2841H13.1158V12H9.48509Z" fill="black"/>
</svg>
