<svg width="16" height="16" viewBox="0 0 16 16" fill="none" xmlns="http://www.w3.org/2000/svg">
<path d="M1.8 14.2C2.35 14.75 3.1 15.05 3.85 15C5 14.9 6.1 14.4 6.95 13.6C8.15 12.4 8.65 10.65 8.25 8.99998L14.55 3.54998C14.85 3.29998 15 2.89998 15 2.49998C15 2.09998 14.85 1.69998 14.55 1.44998C14.3 1.14998 13.9 0.999977 13.5 0.999977C13.1 0.999977 12.7 1.14998 12.4 1.44998L7 7.74998C6.6 7.64998 6.25 7.59998 5.85 7.59998C4.6 7.59998 3.35 8.09998 2.4 9.04998C1.55 9.89998 1.05 11 1 12.15C0.95 12.9 1.25 13.65 1.8 14.2ZM13.15 2.14998C13.35 1.94998 13.65 1.94998 13.85 2.14998C13.95 2.24998 14 2.34998 14 2.49998C14 2.64998 13.95 2.74998 13.9 2.84998L8.85 7.19998L13.15 2.14998ZM3.15 9.74998C4.2 8.69998 5.7 8.34998 7.1 8.79998L7.2 8.84998L7.25 8.94998C7.7 10.35 7.35 11.85 6.3 12.9C5.65 13.55 4.75 13.95 3.85 14.05C3.4 14.1 2.9 13.9 2.55 13.55C2.2 13.2 2.05 12.75 2.05 12.25C2.05 11.3 2.45 10.4 3.15 9.74998Z" fill="black"/>
</svg>
