<svg width="379" height="112" viewBox="0 0 379 112" fill="none" xmlns="http://www.w3.org/2000/svg">
<rect x="0.5" y="0.5" width="378" height="111" stroke="black"/>
<rect width="379" height="12" fill="black"/>
<path d="M4.8228 9V3.18182H5.70064V8.24432H8.337V9H4.8228ZM11.1509 9.08807C10.721 9.08807 10.3507 8.99621 10.0401 8.8125C9.73142 8.62689 9.49278 8.36648 9.32422 8.03125C9.15755 7.69413 9.07422 7.29924 9.07422 6.84659C9.07422 6.39962 9.15755 6.00568 9.32422 5.66477C9.49278 5.32386 9.72763 5.05777 10.0288 4.86648C10.3318 4.67519 10.686 4.57955 11.0913 4.57955C11.3375 4.57955 11.5761 4.62027 11.8072 4.7017C12.0382 4.78314 12.2456 4.91098 12.4293 5.08523C12.613 5.25947 12.7579 5.4858 12.864 5.7642C12.9701 6.04072 13.0231 6.37689 13.0231 6.77273V7.07386H9.55433V6.4375H12.1907C12.1907 6.21402 12.1452 6.0161 12.0543 5.84375C11.9634 5.66951 11.8356 5.5322 11.6708 5.43182C11.5079 5.33144 11.3166 5.28125 11.0969 5.28125C10.8583 5.28125 10.65 5.33996 10.4719 5.45739C10.2958 5.57292 10.1594 5.72443 10.0629 5.91193C9.96816 6.09754 9.92081 6.29924 9.92081 6.51705V7.0142C9.92081 7.30587 9.97195 7.55398 10.0742 7.75852C10.1784 7.96307 10.3233 8.11932 10.5089 8.22727C10.6945 8.33333 10.9113 8.38636 11.1594 8.38636C11.3204 8.38636 11.4672 8.36364 11.5998 8.31818C11.7324 8.27083 11.8469 8.20076 11.9435 8.10795C12.0401 8.01515 12.114 7.90057 12.1651 7.7642L12.9691 7.90909C12.9047 8.14583 12.7892 8.35322 12.6225 8.53125C12.4577 8.70739 12.2504 8.8447 12.0004 8.94318C11.7522 9.03977 11.4691 9.08807 11.1509 9.08807ZM15.7951 10.7273C15.4485 10.7273 15.1502 10.6818 14.9002 10.5909C14.6521 10.5 14.4495 10.3797 14.2923 10.2301C14.1351 10.0805 14.0176 9.91667 13.94 9.73864L14.6701 9.4375C14.7212 9.52083 14.7894 9.6089 14.8746 9.7017C14.9618 9.7964 15.0792 9.87689 15.2269 9.94318C15.3765 10.0095 15.5688 10.0426 15.8036 10.0426C16.1256 10.0426 16.3917 9.96402 16.6019 9.80682C16.8121 9.65152 16.9173 9.40341 16.9173 9.0625V8.20455H16.8633C16.8121 8.29735 16.7383 8.40057 16.6417 8.5142C16.547 8.62784 16.4163 8.72633 16.2496 8.80966C16.083 8.89299 15.8661 8.93466 15.5991 8.93466C15.2544 8.93466 14.9438 8.85417 14.6673 8.69318C14.3926 8.5303 14.1748 8.29072 14.0138 7.97443C13.8548 7.65625 13.7752 7.26515 13.7752 6.80114C13.7752 6.33712 13.8538 5.93939 14.011 5.60795C14.1701 5.27652 14.3879 5.02273 14.6644 4.84659C14.9409 4.66856 15.2544 4.57955 15.6048 4.57955C15.8756 4.57955 16.0943 4.625 16.261 4.71591C16.4277 4.80492 16.5574 4.90909 16.6502 5.02841C16.7449 5.14773 16.8178 5.25284 16.869 5.34375H16.9315V4.63636H17.7638V9.09659C17.7638 9.47159 17.6767 9.77936 17.5025 10.0199C17.3282 10.2604 17.0924 10.4384 16.7951 10.554C16.4996 10.6695 16.1663 10.7273 15.7951 10.7273ZM15.7866 8.23011C16.0309 8.23011 16.2373 8.1733 16.4059 8.05966C16.5763 7.94413 16.7051 7.77936 16.7923 7.56534C16.8813 7.34943 16.9258 7.09091 16.9258 6.78977C16.9258 6.49621 16.8822 6.23769 16.7951 6.0142C16.708 5.79072 16.5801 5.61648 16.4116 5.49148C16.243 5.36458 16.0347 5.30114 15.7866 5.30114C15.5309 5.30114 15.3178 5.36742 15.1474 5.5C14.9769 5.63068 14.8481 5.80871 14.761 6.03409C14.6758 6.25947 14.6332 6.51136 14.6332 6.78977C14.6332 7.07576 14.6767 7.3267 14.7638 7.54261C14.851 7.75852 14.9798 7.92708 15.1502 8.0483C15.3226 8.16951 15.5347 8.23011 15.7866 8.23011ZM20.7837 9.08807C20.3538 9.08807 19.9835 8.99621 19.6729 8.8125C19.3642 8.62689 19.1256 8.36648 18.957 8.03125C18.7904 7.69413 18.707 7.29924 18.707 6.84659C18.707 6.39962 18.7904 6.00568 18.957 5.66477C19.1256 5.32386 19.3604 5.05777 19.6616 4.86648C19.9646 4.67519 20.3188 4.57955 20.7241 4.57955C20.9703 4.57955 21.2089 4.62027 21.44 4.7017C21.671 4.78314 21.8784 4.91098 22.0621 5.08523C22.2459 5.25947 22.3907 5.4858 22.4968 5.7642C22.6029 6.04072 22.6559 6.37689 22.6559 6.77273V7.07386H19.1871V6.4375H21.8235C21.8235 6.21402 21.7781 6.0161 21.6871 5.84375C21.5962 5.66951 21.4684 5.5322 21.3036 5.43182C21.1407 5.33144 20.9495 5.28125 20.7298 5.28125C20.4911 5.28125 20.2828 5.33996 20.1048 5.45739C19.9286 5.57292 19.7923 5.72443 19.6957 5.91193C19.601 6.09754 19.5536 6.29924 19.5536 6.51705V7.0142C19.5536 7.30587 19.6048 7.55398 19.707 7.75852C19.8112 7.96307 19.9561 8.11932 20.1417 8.22727C20.3273 8.33333 20.5442 8.38636 20.7923 8.38636C20.9532 8.38636 21.1 8.36364 21.2326 8.31818C21.3652 8.27083 21.4798 8.20076 21.5763 8.10795C21.6729 8.01515 21.7468 7.90057 21.7979 7.7642L22.6019 7.90909C22.5375 8.14583 22.422 8.35322 22.2553 8.53125C22.0906 8.70739 21.8832 8.8447 21.6332 8.94318C21.3851 9.03977 21.1019 9.08807 20.7837 9.08807ZM24.4478 6.40909V9H23.5984V4.63636H24.4137V5.34659H24.4677C24.5681 5.11553 24.7253 4.92992 24.9393 4.78977C25.1552 4.64962 25.427 4.57955 25.7546 4.57955C26.052 4.57955 26.3124 4.64205 26.5359 4.76705C26.7594 4.89015 26.9326 5.07386 27.0558 5.31818C27.1789 5.5625 27.2404 5.86458 27.2404 6.22443V9H26.391V6.3267C26.391 6.01042 26.3086 5.76326 26.1438 5.58523C25.979 5.4053 25.7527 5.31534 25.4648 5.31534C25.2679 5.31534 25.0927 5.35795 24.9393 5.44318C24.7878 5.52841 24.6675 5.65341 24.5785 5.81818C24.4914 5.98106 24.4478 6.17803 24.4478 6.40909ZM30.0131 9.08523C29.6609 9.08523 29.3465 8.99527 29.07 8.81534C28.7953 8.63352 28.5794 8.375 28.4222 8.03977C28.2669 7.70265 28.1893 7.2983 28.1893 6.8267C28.1893 6.35511 28.2679 5.9517 28.4251 5.61648C28.5842 5.28125 28.802 5.02462 29.0785 4.84659C29.355 4.66856 29.6684 4.57955 30.0188 4.57955C30.2897 4.57955 30.5075 4.625 30.6722 4.71591C30.8389 4.80492 30.9677 4.90909 31.0586 5.02841C31.1514 5.14773 31.2234 5.25284 31.2745 5.34375H31.3256V3.18182H32.1751V9H31.3455V8.32102H31.2745C31.2234 8.41383 31.1495 8.51989 31.0529 8.6392C30.9582 8.75852 30.8275 8.86269 30.6609 8.9517C30.4942 9.04072 30.2783 9.08523 30.0131 9.08523ZM30.2006 8.3608C30.445 8.3608 30.6514 8.2964 30.82 8.16761C30.9904 8.03693 31.1192 7.85606 31.2063 7.625C31.2953 7.39394 31.3398 7.125 31.3398 6.81818C31.3398 6.51515 31.2963 6.25 31.2092 6.02273C31.122 5.79545 30.9942 5.61837 30.8256 5.49148C30.6571 5.36458 30.4487 5.30114 30.2006 5.30114C29.945 5.30114 29.7319 5.36742 29.5614 5.5C29.391 5.63258 29.2622 5.81345 29.1751 6.04261C29.0898 6.27178 29.0472 6.5303 29.0472 6.81818C29.0472 7.10985 29.0908 7.37216 29.1779 7.60511C29.265 7.83807 29.3938 8.02273 29.5643 8.15909C29.7366 8.29356 29.9487 8.3608 30.2006 8.3608Z" fill="white"/>
<path d="M96.4425 31.9091H97.7699L99.1719 35.3295H99.2315L100.634 31.9091H101.961V37H100.917V33.6864H100.875L99.5572 36.9751H98.8462L97.5288 33.674H97.4865V37H96.4425V31.9091ZM104.553 37.0746C104.167 37.0746 103.833 36.9925 103.551 36.8285C103.271 36.6628 103.055 36.4324 102.902 36.1374C102.75 35.8408 102.674 35.4969 102.674 35.1058C102.674 34.7114 102.75 34.3667 102.902 34.0717C103.055 33.7751 103.271 33.5447 103.551 33.3807C103.833 33.215 104.167 33.1321 104.553 33.1321C104.939 33.1321 105.272 33.215 105.552 33.3807C105.834 33.5447 106.051 33.7751 106.204 34.0717C106.356 34.3667 106.432 34.7114 106.432 35.1058C106.432 35.4969 106.356 35.8408 106.204 36.1374C106.051 36.4324 105.834 36.6628 105.552 36.8285C105.272 36.9925 104.939 37.0746 104.553 37.0746ZM104.558 36.2543C104.734 36.2543 104.88 36.2045 104.998 36.1051C105.116 36.004 105.204 35.8665 105.264 35.6925C105.325 35.5185 105.356 35.3204 105.356 35.0984C105.356 34.8763 105.325 34.6783 105.264 34.5043C105.204 34.3303 105.116 34.1927 104.998 34.0916C104.88 33.9905 104.734 33.94 104.558 33.94C104.381 33.94 104.232 33.9905 104.111 34.0916C103.991 34.1927 103.901 34.3303 103.84 34.5043C103.78 34.6783 103.75 34.8763 103.75 35.0984C103.75 35.3204 103.78 35.5185 103.84 35.6925C103.901 35.8665 103.991 36.004 104.111 36.1051C104.232 36.2045 104.381 36.2543 104.558 36.2543ZM108.18 34.7926V37H107.121V33.1818H108.13V33.8555H108.175C108.259 33.6334 108.401 33.4577 108.6 33.3285C108.799 33.1976 109.04 33.1321 109.323 33.1321C109.588 33.1321 109.82 33.1901 110.017 33.3061C110.214 33.4221 110.367 33.5878 110.477 33.8033C110.586 34.017 110.641 34.2723 110.641 34.5689V37H109.582V34.7578C109.583 34.5241 109.524 34.3419 109.403 34.2109C109.282 34.0784 109.115 34.0121 108.903 34.0121C108.761 34.0121 108.635 34.0427 108.525 34.104C108.418 34.1654 108.333 34.2549 108.272 34.3725C108.212 34.4885 108.181 34.6286 108.18 34.7926ZM112.882 37.0621C112.592 37.0621 112.33 36.9876 112.094 36.8384C111.861 36.6876 111.675 36.4664 111.537 36.1747C111.402 35.8814 111.334 35.5218 111.334 35.0959C111.334 34.6584 111.404 34.2946 111.545 34.0046C111.686 33.7129 111.873 33.495 112.107 33.3509C112.342 33.205 112.6 33.1321 112.88 33.1321C113.094 33.1321 113.272 33.1686 113.414 33.2415C113.558 33.3127 113.674 33.4022 113.762 33.5099C113.852 33.616 113.92 33.7204 113.966 33.8232H113.998V31.9091H115.055V37H114.011V36.3885H113.966C113.916 36.4946 113.846 36.5998 113.755 36.7042C113.665 36.8069 113.548 36.8923 113.404 36.9602C113.262 37.0282 113.088 37.0621 112.882 37.0621ZM113.218 36.2195C113.389 36.2195 113.533 36.1731 113.65 36.0803C113.77 35.9858 113.861 35.854 113.924 35.685C113.988 35.516 114.021 35.3179 114.021 35.0909C114.021 34.8639 113.989 34.6667 113.926 34.4993C113.863 34.3319 113.772 34.2027 113.653 34.1115C113.534 34.0204 113.389 33.9748 113.218 33.9748C113.044 33.9748 112.897 34.022 112.778 34.1165C112.659 34.2109 112.568 34.3419 112.507 34.5092C112.446 34.6766 112.415 34.8705 112.415 35.0909C112.415 35.313 112.446 35.5094 112.507 35.68C112.57 35.8491 112.66 35.9817 112.778 36.0778C112.897 36.1722 113.044 36.2195 113.218 36.2195ZM117.014 37.0721C116.771 37.0721 116.554 37.0298 116.363 36.9453C116.172 36.8591 116.022 36.7324 115.911 36.565C115.801 36.396 115.747 36.1855 115.747 35.9336C115.747 35.7215 115.785 35.5433 115.863 35.3991C115.941 35.255 116.047 35.139 116.182 35.0511C116.316 34.9633 116.468 34.897 116.639 34.8523C116.811 34.8075 116.992 34.776 117.181 34.7578C117.403 34.7346 117.582 34.7131 117.718 34.6932C117.854 34.6716 117.952 34.6402 118.014 34.5987C118.075 34.5573 118.106 34.496 118.106 34.4148V34.3999C118.106 34.2424 118.056 34.1206 117.956 34.0344C117.859 33.9483 117.719 33.9052 117.539 33.9052C117.348 33.9052 117.197 33.9474 117.084 34.032C116.971 34.1148 116.897 34.2192 116.86 34.3452L115.881 34.2656C115.93 34.0336 116.028 33.8331 116.174 33.6641C116.32 33.4934 116.508 33.3625 116.738 33.2713C116.97 33.1785 117.239 33.1321 117.544 33.1321C117.756 33.1321 117.959 33.157 118.153 33.2067C118.348 33.2564 118.522 33.3335 118.672 33.4379C118.825 33.5423 118.945 33.6765 119.033 33.8406C119.121 34.003 119.165 34.1977 119.165 34.4247V37H118.16V36.4705H118.13C118.069 36.5898 117.987 36.6951 117.884 36.7862C117.782 36.8757 117.658 36.9461 117.514 36.9975C117.37 37.0472 117.203 37.0721 117.014 37.0721ZM117.318 36.3413C117.473 36.3413 117.611 36.3106 117.73 36.2493C117.85 36.1863 117.943 36.1018 118.011 35.9957C118.079 35.8897 118.113 35.7695 118.113 35.6353V35.2301C118.08 35.2517 118.034 35.2715 117.976 35.2898C117.92 35.3063 117.856 35.3221 117.785 35.337C117.714 35.3503 117.642 35.3627 117.571 35.3743C117.5 35.3842 117.435 35.3933 117.377 35.4016C117.253 35.4199 117.144 35.4489 117.052 35.4886C116.959 35.5284 116.887 35.5823 116.835 35.6502C116.784 35.7165 116.758 35.7994 116.758 35.8988C116.758 36.043 116.81 36.1532 116.915 36.2294C117.021 36.304 117.155 36.3413 117.318 36.3413ZM120.503 38.4318C120.369 38.4318 120.243 38.421 120.125 38.3995C120.009 38.3796 119.913 38.3539 119.837 38.3224L120.076 37.532C120.2 37.5701 120.312 37.5908 120.411 37.5941C120.512 37.5974 120.599 37.5742 120.672 37.5245C120.747 37.4748 120.807 37.3903 120.854 37.271L120.916 37.1094L119.546 33.1818H120.66L121.45 35.9858H121.49L122.288 33.1818H123.409L121.925 37.4126C121.854 37.6181 121.757 37.7971 121.634 37.9496C121.513 38.1037 121.36 38.2222 121.174 38.305C120.989 38.3896 120.765 38.4318 120.503 38.4318Z" fill="black"/>
<g clip-path="url(#clip0_79_29795)">
<path d="M94 45V49" stroke="black" stroke-width="0.666667" stroke-linecap="round" stroke-linejoin="round"/>
<path d="M90.465 49.465L91.17 50.17" stroke="black" stroke-width="0.666667" stroke-linecap="round" stroke-linejoin="round"/>
<path d="M89 53H90" stroke="black" stroke-width="0.666667" stroke-linecap="round" stroke-linejoin="round"/>
<path d="M98 53H99" stroke="black" stroke-width="0.666667" stroke-linecap="round" stroke-linejoin="round"/>
<path d="M97.535 49.465L96.83 50.17" stroke="black" stroke-width="0.666667" stroke-linecap="round" stroke-linejoin="round"/>
<path d="M99 55H89" stroke="black" stroke-width="0.666667" stroke-linecap="round" stroke-linejoin="round"/>
<path d="M92 47L94 45L96 47" stroke="black" stroke-width="0.666667" stroke-linecap="round" stroke-linejoin="round"/>
<path d="M96 53C96 52.4696 95.7893 51.9609 95.4142 51.5858C95.0391 51.2107 94.5304 51 94 51C93.4696 51 92.9609 51.2107 92.5858 51.5858C92.2107 51.9609 92 52.4696 92 53" stroke="black" stroke-width="0.666667" stroke-linecap="round" stroke-linejoin="round"/>
</g>
<g clip-path="url(#clip1_79_29795)">
<path d="M110 52C111.105 52 112 51.1046 112 50C112 48.8954 111.105 48 110 48C108.895 48 108 48.8954 108 50C108 51.1046 108.895 52 110 52Z" stroke="black" stroke-width="0.666667" stroke-linecap="round" stroke-linejoin="round"/>
<path d="M110 45V46" stroke="black" stroke-width="0.666667" stroke-linecap="round" stroke-linejoin="round"/>
<path d="M110 54V55" stroke="black" stroke-width="0.666667" stroke-linecap="round" stroke-linejoin="round"/>
<path d="M106.465 46.465L107.17 47.17" stroke="black" stroke-width="0.666667" stroke-linecap="round" stroke-linejoin="round"/>
<path d="M112.83 52.83L113.535 53.535" stroke="black" stroke-width="0.666667" stroke-linecap="round" stroke-linejoin="round"/>
<path d="M105 50H106" stroke="black" stroke-width="0.666667" stroke-linecap="round" stroke-linejoin="round"/>
<path d="M114 50H115" stroke="black" stroke-width="0.666667" stroke-linecap="round" stroke-linejoin="round"/>
<path d="M107.17 52.83L106.465 53.535" stroke="black" stroke-width="0.666667" stroke-linecap="round" stroke-linejoin="round"/>
<path d="M113.535 46.465L112.83 47.17" stroke="black" stroke-width="0.666667" stroke-linecap="round" stroke-linejoin="round"/>
</g>
<path d="M126.5 52C126.898 52 127.279 52.158 127.561 52.4393C127.842 52.7206 128 53.1022 128 53.5C128 53.8978 127.842 54.2794 127.561 54.5607C127.279 54.842 126.898 55 126.5 55H123.5C123.027 54.9999 122.564 54.8656 122.164 54.6127C121.764 54.3598 121.444 53.9987 121.242 53.5714C121.039 53.144 120.962 52.6679 121.019 52.1983C121.076 51.7288 121.265 51.285 121.564 50.9187C121.863 50.5523 122.26 50.2783 122.709 50.1286C123.158 49.9788 123.64 49.9595 124.099 50.0727C124.558 50.1859 124.976 50.4271 125.304 50.7683C125.631 51.1094 125.855 51.5365 125.95 52H126.5Z" stroke="black" stroke-width="0.666667" stroke-linecap="round" stroke-linejoin="round"/>
<path d="M125.05 48.5C125.168 47.8023 125.529 47.1688 126.068 46.7113C126.608 46.2538 127.292 46.0019 128 46C127.602 46.3978 127.379 46.9374 127.379 47.5C127.379 47.7786 127.434 48.0544 127.54 48.3118C127.647 48.5692 127.803 48.803 128 49C128.197 49.197 128.431 49.3532 128.688 49.4598C128.946 49.5665 129.221 49.6213 129.5 49.6213C130.063 49.6213 130.602 49.3978 131 49C131 49.5267 130.861 50.0441 130.598 50.5002C130.335 50.9564 129.956 51.3352 129.5 51.5985" stroke="black" stroke-width="0.666667" stroke-linecap="round" stroke-linejoin="round"/>
<path d="M48.0863 37H46.2908V31.1818H48.1658C48.7302 31.1818 49.2132 31.2983 49.6147 31.5312C50.0162 31.7623 50.324 32.0947 50.538 32.5284C50.752 32.9602 50.859 33.4773 50.859 34.0795C50.859 34.6856 50.7511 35.2074 50.5352 35.6449C50.3192 36.0805 50.0048 36.4157 49.592 36.6506C49.1791 36.8835 48.6772 37 48.0863 37ZM46.9954 36.375H48.0408C48.5219 36.375 48.9206 36.2822 49.2369 36.0966C49.5531 35.911 49.7889 35.6468 49.9442 35.304C50.0995 34.9612 50.1772 34.553 50.1772 34.0795C50.1772 33.6098 50.1005 33.2055 49.9471 32.8665C49.7937 32.5256 49.5645 32.2642 49.2596 32.0824C48.9547 31.8987 48.5749 31.8068 48.1204 31.8068H46.9954V36.375ZM53.234 37.1023C52.9575 37.1023 52.7066 37.0502 52.4812 36.946C52.2558 36.84 52.0768 36.6875 51.9442 36.4886C51.8117 36.2879 51.7454 36.0455 51.7454 35.7614C51.7454 35.5114 51.7946 35.3087 51.8931 35.1534C51.9916 34.9962 52.1232 34.8731 52.288 34.7841C52.4528 34.6951 52.6346 34.6288 52.8334 34.5852C53.0342 34.5398 53.2359 34.5038 53.4386 34.4773C53.7037 34.4432 53.9187 34.4176 54.0834 34.4006C54.2501 34.3816 54.3713 34.3504 54.4471 34.3068C54.5247 34.2633 54.5636 34.1875 54.5636 34.0795V34.0568C54.5636 33.7765 54.4869 33.5587 54.3334 33.4034C54.1819 33.2481 53.9518 33.1705 53.6431 33.1705C53.323 33.1705 53.0721 33.2405 52.8903 33.3807C52.7084 33.5208 52.5806 33.6705 52.5067 33.8295L51.8704 33.6023C51.984 33.3371 52.1355 33.1307 52.3249 32.983C52.5162 32.8333 52.7245 32.7292 52.9499 32.6705C53.1772 32.6098 53.4007 32.5795 53.6204 32.5795C53.7605 32.5795 53.9215 32.5966 54.1033 32.6307C54.287 32.6629 54.4641 32.7301 54.6346 32.8324C54.8069 32.9347 54.9499 33.089 55.0636 33.2955C55.1772 33.5019 55.234 33.7784 55.234 34.125V37H54.5636V36.4091H54.5295C54.484 36.5038 54.4083 36.6051 54.3022 36.7131C54.1961 36.821 54.055 36.9129 53.8789 36.9886C53.7028 37.0644 53.4878 37.1023 53.234 37.1023ZM53.3363 36.5C53.6014 36.5 53.8249 36.4479 54.0067 36.3438C54.1905 36.2396 54.3287 36.1051 54.4215 35.9403C54.5162 35.7756 54.5636 35.6023 54.5636 35.4205V34.8068C54.5352 34.8409 54.4727 34.8722 54.3761 34.9006C54.2814 34.9271 54.1715 34.9508 54.0465 34.9716C53.9234 34.9905 53.8031 35.0076 53.6857 35.0227C53.5702 35.036 53.4764 35.0473 53.4045 35.0568C53.2302 35.0795 53.0673 35.1165 52.9158 35.1676C52.7662 35.2169 52.645 35.2917 52.5522 35.392C52.4613 35.4905 52.4158 35.625 52.4158 35.7955C52.4158 36.0284 52.502 36.2045 52.6744 36.3239C52.8486 36.4413 53.0692 36.5 53.3363 36.5ZM56.7333 38.6364C56.6197 38.6364 56.5183 38.6269 56.4293 38.608C56.3403 38.5909 56.2788 38.5739 56.2447 38.5568L56.4151 37.9659C56.578 38.0076 56.7219 38.0227 56.8469 38.0114C56.9719 38 57.0827 37.9441 57.1793 37.8438C57.2778 37.7453 57.3678 37.5852 57.4492 37.3636L57.5742 37.0227L55.9606 32.6364H56.6879L57.8924 36.1136H57.9379L59.1424 32.6364H59.8697L58.0174 37.6364C57.9341 37.8617 57.8308 38.0483 57.7077 38.196C57.5846 38.3456 57.4416 38.4564 57.2788 38.5284C57.1178 38.6004 56.936 38.6364 56.7333 38.6364Z" fill="black"/>
<path d="M30.0682 59.1818H30.9091L32.8864 64.0114H32.9545L34.9318 59.1818H35.7727V65H35.1136V60.5795H35.0568L33.2386 65H32.6023L30.7841 60.5795H30.7273V65H30.0682V59.1818ZM38.8672 65.0909C38.4732 65.0909 38.1276 64.9972 37.8303 64.8097C37.5348 64.6222 37.3037 64.3598 37.1371 64.0227C36.9723 63.6856 36.8899 63.2917 36.8899 62.8409C36.8899 62.3864 36.9723 61.9896 37.1371 61.6506C37.3037 61.3116 37.5348 61.0483 37.8303 60.8608C38.1276 60.6733 38.4732 60.5795 38.8672 60.5795C39.2611 60.5795 39.6058 60.6733 39.9013 60.8608C40.1986 61.0483 40.4297 61.3116 40.5945 61.6506C40.7611 61.9896 40.8445 62.3864 40.8445 62.8409C40.8445 63.2917 40.7611 63.6856 40.5945 64.0227C40.4297 64.3598 40.1986 64.6222 39.9013 64.8097C39.6058 64.9972 39.2611 65.0909 38.8672 65.0909ZM38.8672 64.4886C39.1664 64.4886 39.4126 64.4119 39.6058 64.2585C39.799 64.1051 39.942 63.9034 40.0348 63.6534C40.1276 63.4034 40.174 63.1326 40.174 62.8409C40.174 62.5492 40.1276 62.2775 40.0348 62.0256C39.942 61.7737 39.799 61.5701 39.6058 61.4148C39.4126 61.2595 39.1664 61.1818 38.8672 61.1818C38.5679 61.1818 38.3217 61.2595 38.1285 61.4148C37.9354 61.5701 37.7924 61.7737 37.6996 62.0256C37.6068 62.2775 37.5604 62.5492 37.5604 62.8409C37.5604 63.1326 37.6068 63.4034 37.6996 63.6534C37.7924 63.9034 37.9354 64.1051 38.1285 64.2585C38.3217 64.4119 38.5679 64.4886 38.8672 64.4886ZM41.8679 65V60.6364H42.5156V61.2955H42.5611C42.6406 61.0795 42.7846 60.9044 42.9929 60.7699C43.2012 60.6354 43.4361 60.5682 43.6974 60.5682C43.7467 60.5682 43.8082 60.5691 43.8821 60.571C43.956 60.5729 44.0118 60.5758 44.0497 60.5795V61.2614C44.027 61.2557 43.9749 61.2472 43.8935 61.2358C43.8139 61.2225 43.7296 61.2159 43.6406 61.2159C43.4285 61.2159 43.2391 61.2604 43.0724 61.3494C42.9077 61.4366 42.777 61.5578 42.6804 61.7131C42.5857 61.8665 42.5383 62.0417 42.5383 62.2386V65H41.8679ZM45.5149 62.375V65H44.8445V60.6364H45.4922V61.3182H45.549C45.6513 61.0966 45.8066 60.9186 46.0149 60.7841C46.2232 60.6477 46.4922 60.5795 46.8217 60.5795C47.1172 60.5795 47.3757 60.6402 47.5973 60.7614C47.8189 60.8807 47.9912 61.0625 48.1143 61.3068C48.2374 61.5492 48.299 61.8561 48.299 62.2273V65H47.6285V62.2727C47.6285 61.9299 47.5395 61.6629 47.3615 61.4716C47.1835 61.2784 46.9392 61.1818 46.6285 61.1818C46.4145 61.1818 46.2232 61.2282 46.0547 61.321C45.888 61.4138 45.7564 61.5492 45.6598 61.7273C45.5632 61.9053 45.5149 62.1212 45.5149 62.375ZM49.5241 65V60.6364H50.1946V65H49.5241ZM49.8651 59.9091C49.7344 59.9091 49.6217 59.8646 49.527 59.7756C49.4342 59.6866 49.3878 59.5795 49.3878 59.4545C49.3878 59.3295 49.4342 59.2225 49.527 59.1335C49.6217 59.0445 49.7344 59 49.8651 59C49.9957 59 50.1075 59.0445 50.2003 59.1335C50.295 59.2225 50.3423 59.3295 50.3423 59.4545C50.3423 59.5795 50.295 59.6866 50.2003 59.7756C50.1075 59.8646 49.9957 59.9091 49.8651 59.9091ZM52.093 62.375V65H51.4226V60.6364H52.0703V61.3182H52.1271C52.2294 61.0966 52.3847 60.9186 52.593 60.7841C52.8014 60.6477 53.0703 60.5795 53.3999 60.5795C53.6953 60.5795 53.9538 60.6402 54.1754 60.7614C54.397 60.8807 54.5694 61.0625 54.6925 61.3068C54.8156 61.5492 54.8771 61.8561 54.8771 62.2273V65H54.2067V62.2727C54.2067 61.9299 54.1177 61.6629 53.9396 61.4716C53.7616 61.2784 53.5173 61.1818 53.2067 61.1818C52.9927 61.1818 52.8014 61.2282 52.6328 61.321C52.4661 61.4138 52.3345 61.5492 52.2379 61.7273C52.1413 61.9053 52.093 62.1212 52.093 62.375ZM57.8636 66.7273C57.5398 66.7273 57.2614 66.6856 57.0284 66.6023C56.7955 66.5208 56.6013 66.4129 56.446 66.2784C56.2926 66.1458 56.1705 66.0038 56.0795 65.8523L56.6136 65.4773C56.6742 65.5568 56.7509 65.6477 56.8437 65.75C56.9365 65.8542 57.0634 65.9441 57.2244 66.0199C57.3873 66.0975 57.6004 66.1364 57.8636 66.1364C58.2159 66.1364 58.5066 66.0511 58.7358 65.8807C58.965 65.7102 59.0795 65.4432 59.0795 65.0795V64.1932H59.0227C58.9735 64.2727 58.9034 64.3712 58.8125 64.4886C58.7235 64.6042 58.5947 64.7074 58.4261 64.7983C58.2595 64.8873 58.0341 64.9318 57.75 64.9318C57.3977 64.9318 57.0814 64.8485 56.8011 64.6818C56.5227 64.5152 56.3021 64.2727 56.1392 63.9545C55.9782 63.6364 55.8977 63.25 55.8977 62.7955C55.8977 62.3485 55.9763 61.9593 56.1335 61.6278C56.2907 61.2945 56.5095 61.0369 56.7898 60.8551C57.0701 60.6714 57.3939 60.5795 57.7614 60.5795C58.0455 60.5795 58.2708 60.6269 58.4375 60.7216C58.6061 60.8144 58.7348 60.9205 58.8239 61.0398C58.9148 61.1572 58.9848 61.2538 59.0341 61.3295H59.1023V60.6364H59.75V65.125C59.75 65.5 59.6648 65.8049 59.4943 66.0398C59.3258 66.2765 59.0985 66.4498 58.8125 66.5597C58.5284 66.6714 58.2121 66.7273 57.8636 66.7273ZM57.8409 64.3295C58.1098 64.3295 58.3371 64.268 58.5227 64.1449C58.7083 64.0218 58.8494 63.8447 58.946 63.6136C59.0426 63.3826 59.0909 63.1061 59.0909 62.7841C59.0909 62.4697 59.0436 62.1922 58.9489 61.9517C58.8542 61.7112 58.714 61.5227 58.5284 61.3864C58.3428 61.25 58.1136 61.1818 57.8409 61.1818C57.5568 61.1818 57.3201 61.2538 57.1307 61.3977C56.9432 61.5417 56.8021 61.7348 56.7074 61.9773C56.6146 62.2197 56.5682 62.4886 56.5682 62.7841C56.5682 63.0871 56.6155 63.3551 56.7102 63.5881C56.8068 63.8191 56.9489 64.0009 57.1364 64.1335C57.3258 64.2642 57.5606 64.3295 57.8409 64.3295Z" fill="black"/>
<path d="M23.4631 81H22.7244L24.8608 75.1818H25.5881L27.7244 81H26.9858L25.2472 76.1023H25.2017L23.4631 81ZM23.7358 78.7273H26.7131V79.3523H23.7358V78.7273ZM30.483 76.6364V77.2045H28.1307V76.6364H30.483ZM28.8352 81V76.0341C28.8352 75.7841 28.8939 75.5758 29.0114 75.4091C29.1288 75.2424 29.2812 75.1174 29.4687 75.0341C29.6562 74.9508 29.8542 74.9091 30.0625 74.9091C30.2273 74.9091 30.3617 74.9223 30.4659 74.9489C30.5701 74.9754 30.6477 75 30.6989 75.0227L30.5057 75.6023C30.4716 75.5909 30.4242 75.5767 30.3636 75.5597C30.3049 75.5426 30.2273 75.5341 30.1307 75.5341C29.9091 75.5341 29.749 75.59 29.6506 75.7017C29.554 75.8134 29.5057 75.9773 29.5057 76.1932V81H28.8352ZM33.3203 76.6364V77.2045H31.0589V76.6364H33.3203ZM31.718 75.5909H32.3885V79.75C32.3885 79.9394 32.416 80.0814 32.4709 80.1761C32.5277 80.2689 32.5997 80.3314 32.6868 80.3636C32.7758 80.3939 32.8696 80.4091 32.968 80.4091C33.0419 80.4091 33.1025 80.4053 33.1499 80.3977C33.1972 80.3883 33.2351 80.3807 33.2635 80.375L33.3999 80.9773C33.3544 80.9943 33.291 81.0114 33.2095 81.0284C33.1281 81.0473 33.0249 81.0568 32.8999 81.0568C32.7105 81.0568 32.5249 81.0161 32.343 80.9347C32.1631 80.8532 32.0135 80.7292 31.8942 80.5625C31.7767 80.3958 31.718 80.1856 31.718 79.9318V75.5909ZM36.1115 81.0909C35.691 81.0909 35.3284 80.9981 35.0234 80.8125C34.7204 80.625 34.4865 80.3636 34.3217 80.0284C34.1589 79.6913 34.0774 79.2992 34.0774 78.8523C34.0774 78.4053 34.1589 78.0114 34.3217 77.6705C34.4865 77.3277 34.7157 77.0606 35.0092 76.8693C35.3047 76.6761 35.6494 76.5795 36.0433 76.5795C36.2706 76.5795 36.495 76.6174 36.7166 76.6932C36.9382 76.7689 37.1399 76.892 37.3217 77.0625C37.5035 77.2311 37.6484 77.4545 37.7564 77.733C37.8643 78.0114 37.9183 78.3542 37.9183 78.7614V79.0455H34.5547V78.4659H37.2365C37.2365 78.2197 37.1873 78 37.0888 77.8068C36.9922 77.6136 36.8539 77.4612 36.674 77.3494C36.496 77.2377 36.2857 77.1818 36.0433 77.1818C35.7763 77.1818 35.5452 77.2481 35.3501 77.3807C35.157 77.5114 35.0083 77.6818 34.9041 77.892C34.7999 78.1023 34.7479 78.3277 34.7479 78.5682V78.9545C34.7479 79.2841 34.8047 79.5634 34.9183 79.7926C35.0339 80.0199 35.1939 80.1932 35.3984 80.3125C35.603 80.4299 35.8407 80.4886 36.1115 80.4886C36.2876 80.4886 36.4467 80.464 36.5888 80.4148C36.7327 80.3636 36.8568 80.2879 36.9609 80.1875C37.0651 80.0852 37.1456 79.9583 37.2024 79.8068L37.8501 79.9886C37.782 80.2083 37.6674 80.4015 37.5064 80.5682C37.3454 80.733 37.1465 80.8617 36.9098 80.9545C36.6731 81.0455 36.407 81.0909 36.1115 81.0909ZM38.9382 81V76.6364H39.5859V77.2955H39.6314C39.7109 77.0795 39.8549 76.9044 40.0632 76.7699C40.2715 76.6354 40.5064 76.5682 40.7678 76.5682C40.817 76.5682 40.8785 76.5691 40.9524 76.571C41.0263 76.5729 41.0821 76.5758 41.12 76.5795V77.2614C41.0973 77.2557 41.0452 77.2472 40.9638 77.2358C40.8842 77.2225 40.7999 77.2159 40.7109 77.2159C40.4988 77.2159 40.3094 77.2604 40.1428 77.3494C39.978 77.4366 39.8473 77.5578 39.7507 77.7131C39.656 77.8665 39.6087 78.0417 39.6087 78.2386V81H38.9382ZM42.5852 78.375V81H41.9148V76.6364H42.5625V77.3182H42.6193C42.7216 77.0966 42.8769 76.9186 43.0852 76.7841C43.2936 76.6477 43.5625 76.5795 43.892 76.5795C44.1875 76.5795 44.446 76.6402 44.6676 76.7614C44.8892 76.8807 45.0615 77.0625 45.1847 77.3068C45.3078 77.5492 45.3693 77.8561 45.3693 78.2273V81H44.6989V78.2727C44.6989 77.9299 44.6098 77.6629 44.4318 77.4716C44.2538 77.2784 44.0095 77.1818 43.6989 77.1818C43.4848 77.1818 43.2936 77.2282 43.125 77.321C42.9583 77.4138 42.8267 77.5492 42.7301 77.7273C42.6335 77.9053 42.5852 78.1212 42.5852 78.375ZM48.3672 81.0909C47.9732 81.0909 47.6276 80.9972 47.3303 80.8097C47.0348 80.6222 46.8037 80.3598 46.6371 80.0227C46.4723 79.6856 46.3899 79.2917 46.3899 78.8409C46.3899 78.3864 46.4723 77.9896 46.6371 77.6506C46.8037 77.3116 47.0348 77.0483 47.3303 76.8608C47.6276 76.6733 47.9732 76.5795 48.3672 76.5795C48.7611 76.5795 49.1058 76.6733 49.4013 76.8608C49.6986 77.0483 49.9297 77.3116 50.0945 77.6506C50.2611 77.9896 50.3445 78.3864 50.3445 78.8409C50.3445 79.2917 50.2611 79.6856 50.0945 80.0227C49.9297 80.3598 49.6986 80.6222 49.4013 80.8097C49.1058 80.9972 48.7611 81.0909 48.3672 81.0909ZM48.3672 80.4886C48.6664 80.4886 48.9126 80.4119 49.1058 80.2585C49.299 80.1051 49.442 79.9034 49.5348 79.6534C49.6276 79.4034 49.674 79.1326 49.674 78.8409C49.674 78.5492 49.6276 78.2775 49.5348 78.0256C49.442 77.7737 49.299 77.5701 49.1058 77.4148C48.9126 77.2595 48.6664 77.1818 48.3672 77.1818C48.0679 77.1818 47.8217 77.2595 47.6285 77.4148C47.4354 77.5701 47.2924 77.7737 47.1996 78.0256C47.1068 78.2775 47.0604 78.5492 47.0604 78.8409C47.0604 79.1326 47.1068 79.4034 47.1996 79.6534C47.2924 79.9034 47.4354 80.1051 47.6285 80.2585C47.8217 80.4119 48.0679 80.4886 48.3672 80.4886ZM53.1406 81.0909C52.7467 81.0909 52.401 80.9972 52.1037 80.8097C51.8082 80.6222 51.5772 80.3598 51.4105 80.0227C51.2457 79.6856 51.1633 79.2917 51.1633 78.8409C51.1633 78.3864 51.2457 77.9896 51.4105 77.6506C51.5772 77.3116 51.8082 77.0483 52.1037 76.8608C52.401 76.6733 52.7467 76.5795 53.1406 76.5795C53.5346 76.5795 53.8793 76.6733 54.1747 76.8608C54.4721 77.0483 54.7031 77.3116 54.8679 77.6506C55.0346 77.9896 55.1179 78.3864 55.1179 78.8409C55.1179 79.2917 55.0346 79.6856 54.8679 80.0227C54.7031 80.3598 54.4721 80.6222 54.1747 80.8097C53.8793 80.9972 53.5346 81.0909 53.1406 81.0909ZM53.1406 80.4886C53.4399 80.4886 53.6861 80.4119 53.8793 80.2585C54.0724 80.1051 54.2154 79.9034 54.3082 79.6534C54.401 79.4034 54.4474 79.1326 54.4474 78.8409C54.4474 78.5492 54.401 78.2775 54.3082 78.0256C54.2154 77.7737 54.0724 77.5701 53.8793 77.4148C53.6861 77.2595 53.4399 77.1818 53.1406 77.1818C52.8414 77.1818 52.5952 77.2595 52.402 77.4148C52.2088 77.5701 52.0658 77.7737 51.973 78.0256C51.8802 78.2775 51.8338 78.5492 51.8338 78.8409C51.8338 79.1326 51.8802 79.4034 51.973 79.6534C52.0658 79.9034 52.2088 80.1051 52.402 80.2585C52.5952 80.4119 52.8414 80.4886 53.1406 80.4886ZM56.8118 78.375V81H56.1413V76.6364H56.7891V77.3182H56.8459C56.9481 77.0966 57.1035 76.9186 57.3118 76.7841C57.5201 76.6477 57.7891 76.5795 58.1186 76.5795C58.4141 76.5795 58.6726 76.6402 58.8942 76.7614C59.1158 76.8807 59.2881 77.0625 59.4112 77.3068C59.5343 77.5492 59.5959 77.8561 59.5959 78.2273V81H58.9254V78.2727C58.9254 77.9299 58.8364 77.6629 58.6584 77.4716C58.4803 77.2784 58.236 77.1818 57.9254 77.1818C57.7114 77.1818 57.5201 77.2282 57.3516 77.321C57.1849 77.4138 57.0533 77.5492 56.9567 77.7273C56.8601 77.9053 56.8118 78.1212 56.8118 78.375Z" fill="black"/>
<path d="M31.1346 97V91.1818H34.6459V91.8068H31.8391V93.7727H34.4641V94.3977H31.8391V96.375H34.6914V97H31.1346ZM39.3931 92.6364L37.7795 97H37.0977L35.484 92.6364H36.2113L37.4158 96.1136H37.4613L38.6658 92.6364H39.3931ZM41.9513 97.0909C41.5309 97.0909 41.1682 96.9981 40.8633 96.8125C40.5602 96.625 40.3263 96.3636 40.1616 96.0284C39.9987 95.6913 39.9173 95.2992 39.9173 94.8523C39.9173 94.4053 39.9987 94.0114 40.1616 93.6705C40.3263 93.3277 40.5555 93.0606 40.8491 92.8693C41.1445 92.6761 41.4892 92.5795 41.8832 92.5795C42.1104 92.5795 42.3349 92.6174 42.5565 92.6932C42.778 92.7689 42.9798 92.892 43.1616 93.0625C43.3434 93.2311 43.4883 93.4545 43.5962 93.733C43.7042 94.0114 43.7582 94.3542 43.7582 94.7614V95.0455H40.3945V94.4659H43.0763C43.0763 94.2197 43.0271 94 42.9286 93.8068C42.832 93.6136 42.6938 93.4612 42.5138 93.3494C42.3358 93.2377 42.1256 93.1818 41.8832 93.1818C41.6161 93.1818 41.3851 93.2481 41.19 93.3807C40.9968 93.5114 40.8481 93.6818 40.744 93.892C40.6398 94.1023 40.5877 94.3277 40.5877 94.5682V94.9545C40.5877 95.2841 40.6445 95.5634 40.7582 95.7926C40.8737 96.0199 41.0337 96.1932 41.2383 96.3125C41.4428 96.4299 41.6805 96.4886 41.9513 96.4886C42.1275 96.4886 42.2866 96.464 42.4286 96.4148C42.5726 96.3636 42.6966 96.2879 42.8008 96.1875C42.9049 96.0852 42.9854 95.9583 43.0423 95.8068L43.69 95.9886C43.6218 96.2083 43.5072 96.4015 43.3462 96.5682C43.1852 96.733 42.9864 96.8617 42.7496 96.9545C42.5129 97.0455 42.2468 97.0909 41.9513 97.0909ZM45.4485 94.375V97H44.778V92.6364H45.4258V93.3182H45.4826C45.5849 93.0966 45.7402 92.9186 45.9485 92.7841C46.1568 92.6477 46.4258 92.5795 46.7553 92.5795C47.0508 92.5795 47.3093 92.6402 47.5309 92.7614C47.7525 92.8807 47.9248 93.0625 48.0479 93.3068C48.171 93.5492 48.2326 93.8561 48.2326 94.2273V97H47.5621V94.2727C47.5621 93.9299 47.4731 93.6629 47.2951 93.4716C47.1171 93.2784 46.8727 93.1818 46.5621 93.1818C46.3481 93.1818 46.1568 93.2282 45.9883 93.321C45.8216 93.4138 45.69 93.5492 45.5934 93.7273C45.4968 93.9053 45.4485 94.1212 45.4485 94.375ZM49.4577 97V92.6364H50.1282V97H49.4577ZM49.7986 91.9091C49.668 91.9091 49.5553 91.8646 49.4606 91.7756C49.3678 91.6866 49.3214 91.5795 49.3214 91.4545C49.3214 91.3295 49.3678 91.2225 49.4606 91.1335C49.5553 91.0445 49.668 91 49.7986 91C49.9293 91 50.0411 91.0445 50.1339 91.1335C50.2286 91.2225 50.2759 91.3295 50.2759 91.4545C50.2759 91.5795 50.2286 91.6866 50.1339 91.7756C50.0411 91.8646 49.9293 91.9091 49.7986 91.9091ZM52.0266 94.375V97H51.3562V92.6364H52.0039V93.3182H52.0607C52.163 93.0966 52.3183 92.9186 52.5266 92.7841C52.735 92.6477 53.0039 92.5795 53.3334 92.5795C53.6289 92.5795 53.8874 92.6402 54.109 92.7614C54.3306 92.8807 54.503 93.0625 54.6261 93.3068C54.7492 93.5492 54.8107 93.8561 54.8107 94.2273V97H54.1403V94.2727C54.1403 93.9299 54.0513 93.6629 53.8732 93.4716C53.6952 93.2784 53.4509 93.1818 53.1403 93.1818C52.9263 93.1818 52.735 93.2282 52.5664 93.321C52.3997 93.4138 52.2681 93.5492 52.1715 93.7273C52.0749 93.9053 52.0266 94.1212 52.0266 94.375ZM57.7972 98.7273C57.4734 98.7273 57.195 98.6856 56.962 98.6023C56.729 98.5208 56.5349 98.4129 56.3796 98.2784C56.2262 98.1458 56.104 98.0038 56.0131 97.8523L56.5472 97.4773C56.6078 97.5568 56.6845 97.6477 56.7773 97.75C56.8701 97.8542 56.997 97.9441 57.158 98.0199C57.3209 98.0975 57.534 98.1364 57.7972 98.1364C58.1495 98.1364 58.4402 98.0511 58.6694 97.8807C58.8986 97.7102 59.0131 97.4432 59.0131 97.0795V96.1932H58.9563C58.9071 96.2727 58.837 96.3712 58.7461 96.4886C58.6571 96.6042 58.5283 96.7074 58.3597 96.7983C58.1931 96.8873 57.9677 96.9318 57.6836 96.9318C57.3313 96.9318 57.015 96.8485 56.7347 96.6818C56.4563 96.5152 56.2357 96.2727 56.0728 95.9545C55.9118 95.6364 55.8313 95.25 55.8313 94.7955C55.8313 94.3485 55.9099 93.9593 56.0671 93.6278C56.2243 93.2945 56.4431 93.0369 56.7234 92.8551C57.0037 92.6714 57.3275 92.5795 57.695 92.5795C57.979 92.5795 58.2044 92.6269 58.3711 92.7216C58.5397 92.8144 58.6684 92.9205 58.7575 93.0398C58.8484 93.1572 58.9184 93.2538 58.9677 93.3295H59.0359V92.6364H59.6836V97.125C59.6836 97.5 59.5984 97.8049 59.4279 98.0398C59.2593 98.2765 59.0321 98.4498 58.7461 98.5597C58.462 98.6714 58.1457 98.7273 57.7972 98.7273ZM57.7745 96.3295C58.0434 96.3295 58.2707 96.268 58.4563 96.1449C58.6419 96.0218 58.783 95.8447 58.8796 95.6136C58.9762 95.3826 59.0245 95.1061 59.0245 94.7841C59.0245 94.4697 58.9772 94.1922 58.8825 93.9517C58.7878 93.7112 58.6476 93.5227 58.462 93.3864C58.2764 93.25 58.0472 93.1818 57.7745 93.1818C57.4904 93.1818 57.2537 93.2538 57.0643 93.3977C56.8768 93.5417 56.7357 93.7348 56.641 93.9773C56.5482 94.2197 56.5018 94.4886 56.5018 94.7841C56.5018 95.0871 56.5491 95.3551 56.6438 95.5881C56.7404 95.8191 56.8825 96.0009 57.07 96.1335C57.2593 96.2642 57.4942 96.3295 57.7745 96.3295Z" fill="black"/>
<path d="M78.3586 35.1768C78.4562 35.0791 78.4562 34.9209 78.3586 34.8232L76.7676 33.2322C76.67 33.1346 76.5117 33.1346 76.4141 33.2322C76.3164 33.3299 76.3164 33.4882 76.4141 33.5858L77.8283 35L76.4141 36.4142C76.3164 36.5118 76.3164 36.6701 76.4141 36.7678C76.5117 36.8654 76.67 36.8654 76.7676 36.7678L78.3586 35.1768ZM78.1818 34.75L61.6364 34.75L61.6364 35.25L78.1818 35.25L78.1818 34.75Z" fill="black" fill-opacity="0.5"/>
<path d="M76.9091 63V63.25H76.9956L77.0636 63.1966L76.9091 63ZM83.521 58.0298C83.5374 57.8927 83.4396 57.7682 83.3025 57.7518L81.0685 57.4837C80.9315 57.4673 80.807 57.565 80.7905 57.7021C80.7741 57.8392 80.8719 57.9637 81.009 57.9801L82.9947 58.2184L82.7564 60.2042C82.74 60.3413 82.8378 60.4657 82.9749 60.4822C83.112 60.4986 83.2364 60.4008 83.2529 60.2638L83.521 58.0298ZM61.6364 63.25H76.9091V62.75H61.6364V63.25ZM77.0636 63.1966L83.4272 58.1966L83.1183 57.8034L76.7546 62.8034L77.0636 63.1966Z" fill="black" fill-opacity="0.5"/>
<path d="M76.9091 79V79.25H76.9956L77.0635 79.1966L76.9091 79ZM103.885 58.0298C103.901 57.8927 103.803 57.7682 103.666 57.7518L101.432 57.4837C101.295 57.4673 101.171 57.565 101.154 57.7021C101.138 57.8392 101.236 57.9637 101.373 57.9801L103.358 58.2184L103.12 60.2042C103.104 60.3413 103.201 60.4657 103.339 60.4822C103.476 60.4986 103.6 60.4008 103.617 60.2638L103.885 58.0298ZM61.6364 79.25H76.9091V78.75H61.6364V79.25ZM77.0635 79.1966L103.791 58.1966L103.482 57.8034L76.7546 78.8034L77.0635 79.1966Z" fill="black" fill-opacity="0.5"/>
<path d="M76.9091 95V95.25H76.9956L77.0636 95.1966L76.9091 95ZM124.248 58.0298C124.265 57.8927 124.167 57.7682 124.03 57.7518L121.796 57.4837C121.659 57.4673 121.534 57.565 121.518 57.7021C121.501 57.8392 121.599 57.9637 121.736 57.9801L123.722 58.2184L123.484 60.2042C123.467 60.3413 123.565 60.4657 123.702 60.4822C123.839 60.4986 123.964 60.4008 123.98 60.2638L124.248 58.0298ZM61.6364 95.25H76.9091V94.75H61.6364V95.25ZM77.0636 95.1966L124.154 58.1966L123.846 57.8034L76.7546 94.8034L77.0636 95.1966Z" fill="black" fill-opacity="0.5"/>
<line x1="150.5" y1="28" x2="150.5" y2="100" stroke="black" stroke-opacity="0.4"/>
<g clip-path="url(#clip2_79_29795)">
<g clip-path="url(#clip3_79_29795)">
<path opacity="0.2" d="M169 41C168.738 41.2631 168.426 41.4718 168.083 41.6142C167.739 41.7566 167.372 41.8298 167 41.8298C166.628 41.8298 166.261 41.7566 165.917 41.6142C165.574 41.4718 165.262 41.2631 165 41C164.737 40.7376 164.528 40.4259 164.386 40.0827C164.243 39.7395 164.17 39.3716 164.17 39C164.17 38.6284 164.243 38.2605 164.386 37.9173C164.528 37.5741 164.737 37.2624 165 37L168 34L172 38L169 41Z" fill="black"/>
<path d="M171 30.9972L165.003 36.9943C163.897 38.1 163.896 39.8918 165.001 40.9963C166.105 42.1009 167.897 42.1 169.003 40.9944L175 34.9972C176.106 33.8915 176.107 32.0998 175.002 30.9952C173.897 29.8906 172.106 29.8915 171 30.9972Z" stroke="black" stroke-linecap="round" stroke-linejoin="round"/>
<path d="M168 34L172 38" stroke="black" stroke-linecap="round" stroke-linejoin="round"/>
<path d="M172.006 35.0062L173.531 33.5312" stroke="black" stroke-linecap="round" stroke-linejoin="round"/>
</g>
</g>
<path d="M182.483 31.5085V30.7273H187.938V31.5085H185.651V38H184.77V31.5085H182.483ZM190.046 38.1278C189.7 38.1278 189.387 38.0627 189.105 37.9325C188.823 37.8 188.599 37.6094 188.434 37.3608C188.268 37.1098 188.185 36.8068 188.185 36.4517C188.185 36.1392 188.247 35.8859 188.37 35.6918C188.493 35.4953 188.657 35.3414 188.863 35.2301C189.069 35.1188 189.297 35.036 189.545 34.9815C189.796 34.9247 190.048 34.8797 190.302 34.8466C190.633 34.804 190.902 34.772 191.108 34.7507C191.316 34.727 191.468 34.688 191.562 34.6335C191.659 34.5791 191.708 34.4844 191.708 34.3494V34.321C191.708 33.9706 191.612 33.6984 191.42 33.5043C191.231 33.3101 190.943 33.2131 190.557 33.2131C190.157 33.2131 189.844 33.3007 189.616 33.4759C189.389 33.651 189.229 33.8381 189.137 34.0369L188.341 33.7528C188.483 33.4214 188.673 33.1634 188.91 32.9787C189.149 32.7917 189.409 32.6615 189.691 32.5881C189.975 32.5123 190.254 32.4744 190.529 32.4744C190.704 32.4744 190.905 32.4957 191.133 32.5384C191.362 32.5786 191.584 32.6626 191.797 32.7905C192.012 32.9183 192.191 33.1113 192.333 33.3693C192.475 33.6274 192.546 33.973 192.546 34.4062V38H191.708V37.2614H191.665C191.608 37.3797 191.514 37.5064 191.381 37.6413C191.249 37.7763 191.072 37.8911 190.852 37.9858C190.632 38.0805 190.363 38.1278 190.046 38.1278ZM190.174 37.375C190.505 37.375 190.785 37.3099 191.012 37.1797C191.242 37.0495 191.414 36.8814 191.53 36.6754C191.649 36.4695 191.708 36.2528 191.708 36.0256V35.2585C191.672 35.3011 191.594 35.3402 191.474 35.3757C191.355 35.4089 191.218 35.4384 191.062 35.4645C190.908 35.4882 190.757 35.5095 190.611 35.5284C190.466 35.545 190.349 35.5592 190.259 35.571C190.041 35.5994 189.838 35.6456 189.648 35.7095C189.461 35.7711 189.31 35.8646 189.194 35.9901C189.08 36.1132 189.023 36.2812 189.023 36.4943C189.023 36.7855 189.131 37.0057 189.346 37.1548C189.564 37.3016 189.84 37.375 190.174 37.375ZM194.857 36.0114L194.843 34.9744H195.013L197.4 32.5455H198.436L195.894 35.1165H195.823L194.857 36.0114ZM194.076 38V30.7273H194.914V38H194.076ZM197.542 38L195.411 35.3011L196.007 34.7188L198.607 38H197.542ZM201.577 38.1136C201.052 38.1136 200.598 37.9976 200.217 37.7656C199.839 37.5312 199.546 37.2045 199.34 36.7855C199.137 36.3641 199.035 35.8741 199.035 35.3153C199.035 34.7566 199.137 34.2642 199.34 33.8381C199.546 33.4096 199.833 33.0758 200.2 32.8366C200.569 32.5952 201 32.4744 201.492 32.4744C201.776 32.4744 202.057 32.5218 202.334 32.6165C202.611 32.7112 202.863 32.8651 203.09 33.0781C203.317 33.2888 203.499 33.5682 203.634 33.9162C203.768 34.2642 203.836 34.6927 203.836 35.2017V35.5568H199.631V34.8324H202.984C202.984 34.5246 202.922 34.25 202.799 34.0085C202.678 33.767 202.505 33.5765 202.281 33.4368C202.058 33.2971 201.795 33.2273 201.492 33.2273C201.158 33.2273 200.87 33.3101 200.626 33.4759C200.384 33.6392 200.198 33.8523 200.068 34.1151C199.938 34.3778 199.873 34.6596 199.873 34.9602V35.4432C199.873 35.8551 199.944 36.2043 200.086 36.4908C200.23 36.7749 200.43 36.9915 200.686 37.1406C200.942 37.2874 201.239 37.3608 201.577 37.3608C201.798 37.3608 201.996 37.33 202.174 37.2685C202.354 37.2045 202.509 37.1098 202.639 36.9844C202.769 36.8565 202.87 36.6979 202.941 36.5085L203.751 36.7358C203.665 37.0104 203.522 37.2519 203.321 37.4602C203.12 37.6662 202.871 37.8272 202.575 37.9432C202.279 38.0568 201.947 38.1136 201.577 38.1136ZM210.139 38.1136C209.647 38.1136 209.215 37.9964 208.843 37.7621C208.474 37.5277 208.185 37.1998 207.977 36.7784C207.771 36.357 207.668 35.8646 207.668 35.3011C207.668 34.733 207.771 34.237 207.977 33.8132C208.185 33.3894 208.474 33.0604 208.843 32.826C209.215 32.5916 209.647 32.4744 210.139 32.4744C210.632 32.4744 211.063 32.5916 211.432 32.826C211.804 33.0604 212.092 33.3894 212.298 33.8132C212.507 34.237 212.611 34.733 212.611 35.3011C212.611 35.8646 212.507 36.357 212.298 36.7784C212.092 37.1998 211.804 37.5277 211.432 37.7621C211.063 37.9964 210.632 38.1136 210.139 38.1136ZM210.139 37.3608C210.513 37.3608 210.821 37.2649 211.062 37.0732C211.304 36.8814 211.483 36.6293 211.599 36.3168C211.715 36.0043 211.773 35.6657 211.773 35.3011C211.773 34.9366 211.715 34.5968 211.599 34.282C211.483 33.9671 211.304 33.7126 211.062 33.5185C210.821 33.3243 210.513 33.2273 210.139 33.2273C209.765 33.2273 209.457 33.3243 209.216 33.5185C208.974 33.7126 208.796 33.9671 208.68 34.282C208.564 34.5968 208.506 34.9366 208.506 35.3011C208.506 35.6657 208.564 36.0043 208.68 36.3168C208.796 36.6293 208.974 36.8814 209.216 37.0732C209.457 37.2649 209.765 37.3608 210.139 37.3608ZM214.728 34.7188V38H213.89V32.5455H214.7V33.3977H214.771C214.899 33.1207 215.093 32.8982 215.353 32.7301C215.614 32.5597 215.95 32.4744 216.362 32.4744C216.731 32.4744 217.054 32.5502 217.331 32.7017C217.608 32.8509 217.824 33.0781 217.977 33.3835C218.131 33.6866 218.208 34.0701 218.208 34.5341V38H217.37V34.5909C217.37 34.1624 217.259 33.8286 217.036 33.5895C216.814 33.348 216.508 33.2273 216.12 33.2273C215.853 33.2273 215.614 33.2853 215.403 33.4013C215.195 33.5173 215.03 33.6866 214.909 33.9091C214.789 34.1316 214.728 34.4015 214.728 34.7188ZM222.027 38.1136C221.501 38.1136 221.048 37.9976 220.667 37.7656C220.288 37.5312 219.995 37.2045 219.789 36.7855C219.586 36.3641 219.484 35.8741 219.484 35.3153C219.484 34.7566 219.586 34.2642 219.789 33.8381C219.995 33.4096 220.282 33.0758 220.649 32.8366C221.018 32.5952 221.449 32.4744 221.941 32.4744C222.225 32.4744 222.506 32.5218 222.783 32.6165C223.06 32.7112 223.312 32.8651 223.539 33.0781C223.767 33.2888 223.948 33.5682 224.083 33.9162C224.218 34.2642 224.285 34.6927 224.285 35.2017V35.5568H220.081V34.8324H223.433C223.433 34.5246 223.371 34.25 223.248 34.0085C223.127 33.767 222.955 33.5765 222.73 33.4368C222.507 33.2971 222.244 33.2273 221.941 33.2273C221.608 33.2273 221.319 33.3101 221.075 33.4759C220.833 33.6392 220.648 33.8523 220.517 34.1151C220.387 34.3778 220.322 34.6596 220.322 34.9602V35.4432C220.322 35.8551 220.393 36.2043 220.535 36.4908C220.68 36.7749 220.88 36.9915 221.135 37.1406C221.391 37.2874 221.688 37.3608 222.027 37.3608C222.247 37.3608 222.446 37.33 222.623 37.2685C222.803 37.2045 222.958 37.1098 223.088 36.9844C223.219 36.8565 223.319 36.6979 223.39 36.5085L224.2 36.7358C224.115 37.0104 223.971 37.2519 223.77 37.4602C223.569 37.6662 223.32 37.8272 223.025 37.9432C222.729 38.0568 222.396 38.1136 222.027 38.1136ZM230.745 32.5455V33.2557H227.918V32.5455H230.745ZM228.742 31.2386H229.58V36.4375C229.58 36.6742 229.614 36.8518 229.683 36.9702C229.754 37.0862 229.844 37.1643 229.953 37.2045C230.064 37.2424 230.181 37.2614 230.304 37.2614C230.397 37.2614 230.472 37.2566 230.532 37.2472C230.591 37.2353 230.638 37.2259 230.674 37.2188L230.844 37.9716C230.787 37.9929 230.708 38.0142 230.606 38.0355C230.504 38.0592 230.375 38.071 230.219 38.071C229.982 38.071 229.75 38.0201 229.523 37.9183C229.298 37.8165 229.111 37.6615 228.962 37.4531C228.815 37.2448 228.742 36.982 228.742 36.6648V31.2386ZM233.61 38.1278C233.265 38.1278 232.951 38.0627 232.669 37.9325C232.388 37.8 232.164 37.6094 231.998 37.3608C231.833 37.1098 231.75 36.8068 231.75 36.4517C231.75 36.1392 231.811 35.8859 231.934 35.6918C232.057 35.4953 232.222 35.3414 232.428 35.2301C232.634 35.1188 232.861 35.036 233.11 34.9815C233.361 34.9247 233.613 34.8797 233.866 34.8466C234.198 34.804 234.466 34.772 234.672 34.7507C234.881 34.727 235.032 34.688 235.127 34.6335C235.224 34.5791 235.272 34.4844 235.272 34.3494V34.321C235.272 33.9706 235.176 33.6984 234.985 33.5043C234.795 33.3101 234.508 33.2131 234.122 33.2131C233.722 33.2131 233.408 33.3007 233.181 33.4759C232.953 33.651 232.794 33.8381 232.701 34.0369L231.906 33.7528C232.048 33.4214 232.237 33.1634 232.474 32.9787C232.713 32.7917 232.974 32.6615 233.255 32.5881C233.539 32.5123 233.819 32.4744 234.093 32.4744C234.269 32.4744 234.47 32.4957 234.697 32.5384C234.927 32.5786 235.148 32.6626 235.361 32.7905C235.577 32.9183 235.755 33.1113 235.897 33.3693C236.039 33.6274 236.11 33.973 236.11 34.4062V38H235.272V37.2614H235.23C235.173 37.3797 235.078 37.5064 234.946 37.6413C234.813 37.7763 234.637 37.8911 234.417 37.9858C234.196 38.0805 233.928 38.1278 233.61 38.1278ZM233.738 37.375C234.07 37.375 234.349 37.3099 234.576 37.1797C234.806 37.0495 234.979 36.8814 235.095 36.6754C235.213 36.4695 235.272 36.2528 235.272 36.0256V35.2585C235.237 35.3011 235.159 35.3402 235.038 35.3757C234.92 35.4089 234.782 35.4384 234.626 35.4645C234.472 35.4882 234.322 35.5095 234.175 35.5284C234.031 35.545 233.913 35.5592 233.824 35.571C233.606 35.5994 233.402 35.6456 233.213 35.7095C233.026 35.7711 232.874 35.8646 232.758 35.9901C232.645 36.1132 232.588 36.2812 232.588 36.4943C232.588 36.7855 232.695 37.0057 232.911 37.1548C233.129 37.3016 233.404 37.375 233.738 37.375ZM237.754 38V30.7273H238.592V33.4119H238.663C238.724 33.3172 238.81 33.1965 238.919 33.0497C239.03 32.9006 239.188 32.768 239.394 32.652C239.603 32.5336 239.884 32.4744 240.24 32.4744C240.699 32.4744 241.104 32.5893 241.454 32.8189C241.804 33.0485 242.078 33.3741 242.274 33.7955C242.471 34.2169 242.569 34.714 242.569 35.2869C242.569 35.8646 242.471 36.3653 242.274 36.7891C242.078 37.2105 241.806 37.5372 241.458 37.7692C241.11 37.9988 240.708 38.1136 240.254 38.1136C239.903 38.1136 239.623 38.0556 239.412 37.9396C239.201 37.8213 239.039 37.6875 238.926 37.5384C238.812 37.3868 238.724 37.2614 238.663 37.1619H238.563V38H237.754ZM238.578 35.2727C238.578 35.6847 238.638 36.0481 238.759 36.3629C238.879 36.6754 239.056 36.9205 239.288 37.098C239.52 37.2732 239.804 37.3608 240.14 37.3608C240.49 37.3608 240.783 37.2685 241.017 37.0838C241.254 36.8968 241.432 36.6458 241.55 36.331C241.671 36.0137 241.731 35.661 241.731 35.2727C241.731 34.8892 241.672 34.5436 241.553 34.2358C241.437 33.9257 241.261 33.6806 241.024 33.5007C240.79 33.3184 240.495 33.2273 240.14 33.2273C239.799 33.2273 239.513 33.3137 239.281 33.4865C239.049 33.657 238.874 33.8961 238.755 34.2038C238.637 34.5092 238.578 34.8655 238.578 35.2727ZM244.689 30.7273V38H243.851V30.7273H244.689ZM248.511 38.1136C247.985 38.1136 247.532 37.9976 247.151 37.7656C246.772 37.5312 246.48 37.2045 246.274 36.7855C246.07 36.3641 245.968 35.8741 245.968 35.3153C245.968 34.7566 246.07 34.2642 246.274 33.8381C246.48 33.4096 246.766 33.0758 247.133 32.8366C247.502 32.5952 247.933 32.4744 248.426 32.4744C248.71 32.4744 248.99 32.5218 249.267 32.6165C249.544 32.7112 249.797 32.8651 250.024 33.0781C250.251 33.2888 250.432 33.5682 250.567 33.9162C250.702 34.2642 250.77 34.6927 250.77 35.2017V35.5568H246.565V34.8324H249.917C249.917 34.5246 249.856 34.25 249.733 34.0085C249.612 33.767 249.439 33.5765 249.214 33.4368C248.992 33.2971 248.729 33.2273 248.426 33.2273C248.092 33.2273 247.803 33.3101 247.559 33.4759C247.318 33.6392 247.132 33.8523 247.002 34.1151C246.872 34.3778 246.806 34.6596 246.806 34.9602V35.4432C246.806 35.8551 246.877 36.2043 247.02 36.4908C247.164 36.7749 247.364 36.9915 247.62 37.1406C247.875 37.2874 248.172 37.3608 248.511 37.3608C248.731 37.3608 248.93 37.33 249.108 37.2685C249.288 37.2045 249.443 37.1098 249.573 36.9844C249.703 36.8565 249.804 36.6979 249.875 36.5085L250.684 36.7358C250.599 37.0104 250.456 37.2519 250.255 37.4602C250.053 37.6662 249.805 37.8272 249.509 37.9432C249.213 38.0568 248.88 38.1136 248.511 38.1136ZM254.417 32.5455V33.2557H251.59V32.5455H254.417ZM252.414 31.2386H253.252V36.4375C253.252 36.6742 253.286 36.8518 253.355 36.9702C253.426 37.0862 253.516 37.1643 253.625 37.2045C253.736 37.2424 253.853 37.2614 253.976 37.2614C254.069 37.2614 254.144 37.2566 254.203 37.2472C254.263 37.2353 254.31 37.2259 254.346 37.2188L254.516 37.9716C254.459 37.9929 254.38 38.0142 254.278 38.0355C254.176 38.0592 254.047 38.071 253.891 38.071C253.654 38.071 253.422 38.0201 253.195 37.9183C252.97 37.8165 252.783 37.6615 252.634 37.4531C252.487 37.2448 252.414 36.982 252.414 36.6648V31.2386Z" fill="black"/>
<path d="M207.156 39.9886H224.797V40.6705H207.156V39.9886Z" fill="black"/>
<g opacity="0.25">
<rect x="162.5" y="52.5" width="11" height="11" rx="1.5" stroke="black"/>
<rect x="162" y="52" width="12" height="12" rx="2" fill="black"/>
</g>
<path d="M186.75 62H184.506V54.7273H186.849C187.555 54.7273 188.159 54.8729 188.661 55.1641C189.162 55.4529 189.547 55.8684 189.815 56.4105C190.082 56.9503 190.216 57.5966 190.216 58.3494C190.216 59.107 190.081 59.7592 189.811 60.3061C189.541 60.8506 189.148 61.2696 188.632 61.5632C188.116 61.8544 187.489 62 186.75 62ZM185.386 61.2188H186.693C187.295 61.2188 187.793 61.1027 188.188 60.8707C188.584 60.6387 188.878 60.3085 189.072 59.88C189.267 59.4515 189.364 58.9413 189.364 58.3494C189.364 57.7623 189.268 57.2569 189.076 56.8331C188.884 56.407 188.598 56.0803 188.217 55.853C187.835 55.6233 187.361 55.5085 186.793 55.5085H185.386V61.2188ZM193.795 62.1136C193.303 62.1136 192.871 61.9964 192.499 61.7621C192.13 61.5277 191.841 61.1998 191.633 60.7784C191.427 60.357 191.324 59.8646 191.324 59.3011C191.324 58.733 191.427 58.237 191.633 57.8132C191.841 57.3894 192.13 57.0604 192.499 56.826C192.871 56.5916 193.303 56.4744 193.795 56.4744C194.288 56.4744 194.719 56.5916 195.088 56.826C195.46 57.0604 195.749 57.3894 195.955 57.8132C196.163 58.237 196.267 58.733 196.267 59.3011C196.267 59.8646 196.163 60.357 195.955 60.7784C195.749 61.1998 195.46 61.5277 195.088 61.7621C194.719 61.9964 194.288 62.1136 193.795 62.1136ZM193.795 61.3608C194.17 61.3608 194.477 61.2649 194.719 61.0732C194.96 60.8814 195.139 60.6293 195.255 60.3168C195.371 60.0043 195.429 59.6657 195.429 59.3011C195.429 58.9366 195.371 58.5968 195.255 58.282C195.139 57.9671 194.96 57.7126 194.719 57.5185C194.477 57.3243 194.17 57.2273 193.795 57.2273C193.421 57.2273 193.114 57.3243 192.872 57.5185C192.631 57.7126 192.452 57.9671 192.336 58.282C192.22 58.5968 192.162 58.9366 192.162 59.3011C192.162 59.6657 192.22 60.0043 192.336 60.3168C192.452 60.6293 192.631 60.8814 192.872 61.0732C193.114 61.2649 193.421 61.3608 193.795 61.3608ZM201.197 58.7188V62H200.359V56.5455H201.169V57.3977H201.24C201.367 57.1207 201.561 56.8982 201.822 56.7301C202.082 56.5597 202.419 56.4744 202.83 56.4744C203.2 56.4744 203.523 56.5502 203.8 56.7017C204.077 56.8509 204.292 57.0781 204.446 57.3835C204.6 57.6866 204.677 58.0701 204.677 58.5341V62H203.839V58.5909C203.839 58.1624 203.728 57.8286 203.505 57.5895C203.283 57.348 202.977 57.2273 202.589 57.2273C202.321 57.2273 202.082 57.2853 201.872 57.4013C201.663 57.5173 201.499 57.6866 201.378 57.9091C201.257 58.1316 201.197 58.4015 201.197 58.7188ZM208.424 62.1136C207.932 62.1136 207.5 61.9964 207.128 61.7621C206.759 61.5277 206.47 61.1998 206.262 60.7784C206.056 60.357 205.953 59.8646 205.953 59.3011C205.953 58.733 206.056 58.237 206.262 57.8132C206.47 57.3894 206.759 57.0604 207.128 56.826C207.5 56.5916 207.932 56.4744 208.424 56.4744C208.917 56.4744 209.348 56.5916 209.717 56.826C210.089 57.0604 210.377 57.3894 210.583 57.8132C210.792 58.237 210.896 58.733 210.896 59.3011C210.896 59.8646 210.792 60.357 210.583 60.7784C210.377 61.1998 210.089 61.5277 209.717 61.7621C209.348 61.9964 208.917 62.1136 208.424 62.1136ZM208.424 61.3608C208.798 61.3608 209.106 61.2649 209.348 61.0732C209.589 60.8814 209.768 60.6293 209.884 60.3168C210 60.0043 210.058 59.6657 210.058 59.3011C210.058 58.9366 210 58.5968 209.884 58.282C209.768 57.9671 209.589 57.7126 209.348 57.5185C209.106 57.3243 208.798 57.2273 208.424 57.2273C208.05 57.2273 207.743 57.3243 207.501 57.5185C207.26 57.7126 207.081 57.9671 206.965 58.282C206.849 58.5968 206.791 58.9366 206.791 59.3011C206.791 59.6657 206.849 60.0043 206.965 60.3168C207.081 60.6293 207.26 60.8814 207.501 61.0732C207.743 61.2649 208.05 61.3608 208.424 61.3608ZM214.547 56.5455V57.2557H211.721V56.5455H214.547ZM212.545 55.2386H213.383V60.4375C213.383 60.6742 213.417 60.8518 213.486 60.9702C213.557 61.0862 213.647 61.1643 213.756 61.2045C213.867 61.2424 213.984 61.2614 214.107 61.2614C214.199 61.2614 214.275 61.2566 214.334 61.2472C214.394 61.2353 214.441 61.2259 214.476 61.2188L214.647 61.9716C214.59 61.9929 214.511 62.0142 214.409 62.0355C214.307 62.0592 214.178 62.071 214.022 62.071C213.785 62.071 213.553 62.0201 213.326 61.9183C213.101 61.8165 212.914 61.6615 212.765 61.4531C212.618 61.2448 212.545 60.982 212.545 60.6648V55.2386ZM220.993 56.5455V57.2557H218.166V56.5455H220.993ZM218.99 55.2386H219.828V60.4375C219.828 60.6742 219.862 60.8518 219.931 60.9702C220.002 61.0862 220.092 61.1643 220.201 61.2045C220.312 61.2424 220.429 61.2614 220.552 61.2614C220.645 61.2614 220.72 61.2566 220.78 61.2472C220.839 61.2353 220.886 61.2259 220.922 61.2188L221.092 61.9716C221.035 61.9929 220.956 62.0142 220.854 62.0355C220.752 62.0592 220.623 62.071 220.467 62.071C220.23 62.071 219.998 62.0201 219.771 61.9183C219.546 61.8165 219.359 61.6615 219.21 61.4531C219.063 61.2448 218.99 60.982 218.99 60.6648V55.2386ZM223.858 62.1278C223.513 62.1278 223.199 62.0627 222.917 61.9325C222.636 61.8 222.412 61.6094 222.246 61.3608C222.081 61.1098 221.998 60.8068 221.998 60.4517C221.998 60.1392 222.059 59.8859 222.182 59.6918C222.305 59.4953 222.47 59.3414 222.676 59.2301C222.882 59.1188 223.109 59.036 223.358 58.9815C223.609 58.9247 223.861 58.8797 224.114 58.8466C224.446 58.804 224.714 58.772 224.92 58.7507C225.129 58.727 225.28 58.688 225.375 58.6335C225.472 58.5791 225.52 58.4844 225.52 58.3494V58.321C225.52 57.9706 225.425 57.6984 225.233 57.5043C225.043 57.3101 224.756 57.2131 224.37 57.2131C223.97 57.2131 223.656 57.3007 223.429 57.4759C223.202 57.651 223.042 57.8381 222.949 58.0369L222.154 57.7528C222.296 57.4214 222.485 57.1634 222.722 56.9787C222.961 56.7917 223.222 56.6615 223.503 56.5881C223.787 56.5123 224.067 56.4744 224.341 56.4744C224.517 56.4744 224.718 56.4957 224.945 56.5384C225.175 56.5786 225.396 56.6626 225.609 56.7905C225.825 56.9183 226.003 57.1113 226.145 57.3693C226.287 57.6274 226.358 57.973 226.358 58.4062V62H225.52V61.2614H225.478C225.421 61.3797 225.326 61.5064 225.194 61.6413C225.061 61.7763 224.885 61.8911 224.665 61.9858C224.444 62.0805 224.176 62.1278 223.858 62.1278ZM223.986 61.375C224.318 61.375 224.597 61.3099 224.824 61.1797C225.054 61.0495 225.227 60.8814 225.343 60.6754C225.461 60.4695 225.52 60.2528 225.52 60.0256V59.2585C225.485 59.3011 225.407 59.3402 225.286 59.3757C225.168 59.4089 225.03 59.4384 224.874 59.4645C224.72 59.4882 224.57 59.5095 224.423 59.5284C224.279 59.545 224.162 59.5592 224.072 59.571C223.854 59.5994 223.65 59.6456 223.461 59.7095C223.274 59.7711 223.122 59.8646 223.006 59.9901C222.893 60.1132 222.836 60.2812 222.836 60.4943C222.836 60.7855 222.943 61.0057 223.159 61.1548C223.377 61.3016 223.653 61.375 223.986 61.375ZM228.669 60.0114L228.655 58.9744H228.826L231.212 56.5455H232.249L229.706 59.1165H229.635L228.669 60.0114ZM227.888 62V54.7273H228.726V62H227.888ZM231.354 62L229.223 59.3011L229.82 58.7188L232.419 62H231.354ZM235.39 62.1136C234.864 62.1136 234.411 61.9976 234.03 61.7656C233.651 61.5312 233.359 61.2045 233.153 60.7855C232.949 60.3641 232.847 59.8741 232.847 59.3153C232.847 58.7566 232.949 58.2642 233.153 57.8381C233.359 57.4096 233.645 57.0758 234.012 56.8366C234.381 56.5952 234.812 56.4744 235.305 56.4744C235.589 56.4744 235.869 56.5218 236.146 56.6165C236.423 56.7112 236.675 56.8651 236.903 57.0781C237.13 57.2888 237.311 57.5682 237.446 57.9162C237.581 58.2642 237.648 58.6927 237.648 59.2017V59.5568H233.444V58.8324H236.796C236.796 58.5246 236.735 58.25 236.612 58.0085C236.491 57.767 236.318 57.5765 236.093 57.4368C235.871 57.2971 235.608 57.2273 235.305 57.2273C234.971 57.2273 234.682 57.3101 234.438 57.4759C234.197 57.6392 234.011 57.8523 233.881 58.1151C233.75 58.3778 233.685 58.6596 233.685 58.9602V59.4432C233.685 59.8551 233.756 60.2043 233.898 60.4908C234.043 60.7749 234.243 60.9915 234.499 61.1406C234.754 61.2874 235.051 61.3608 235.39 61.3608C235.61 61.3608 235.809 61.33 235.987 61.2685C236.166 61.2045 236.321 61.1098 236.452 60.9844C236.582 60.8565 236.683 60.6979 236.754 60.5085L237.563 60.7358C237.478 61.0104 237.335 61.2519 237.134 61.4602C236.932 61.6662 236.684 61.8272 236.388 61.9432C236.092 62.0568 235.759 62.1136 235.39 62.1136Z" fill="black"/>
<path d="M190.355 83.995V82.7273H196.328V83.995H194.102V90H192.582V83.995H190.355ZM198.097 90.103C197.749 90.103 197.438 90.0426 197.166 89.9219C196.894 89.7988 196.679 89.6177 196.52 89.3786C196.364 89.1371 196.286 88.8364 196.286 88.4766C196.286 88.1735 196.341 87.919 196.452 87.7131C196.564 87.5071 196.715 87.3414 196.907 87.2159C197.099 87.0904 197.317 86.9957 197.56 86.9318C197.807 86.8679 198.065 86.8229 198.335 86.7969C198.652 86.7637 198.907 86.733 199.102 86.7045C199.296 86.6738 199.437 86.6288 199.524 86.5696C199.612 86.5104 199.656 86.4228 199.656 86.3068V86.2855C199.656 86.0606 199.585 85.8866 199.442 85.7635C199.303 85.6404 199.104 85.5788 198.846 85.5788C198.574 85.5788 198.357 85.6392 198.196 85.7599C198.035 85.8783 197.929 86.0275 197.876 86.2074L196.477 86.0938C196.548 85.7623 196.688 85.4759 196.896 85.2344C197.105 84.9905 197.373 84.8035 197.702 84.6733C198.034 84.5407 198.417 84.4744 198.853 84.4744C199.156 84.4744 199.446 84.5099 199.723 84.581C200.002 84.652 200.25 84.7621 200.465 84.9112C200.683 85.0604 200.855 85.2521 200.98 85.4865C201.106 85.7185 201.168 85.9967 201.168 86.321V90H199.734V89.2436H199.691C199.603 89.4141 199.486 89.5644 199.339 89.6946C199.193 89.8224 199.016 89.9231 198.81 89.9964C198.604 90.0675 198.366 90.103 198.097 90.103ZM198.53 89.0589C198.752 89.0589 198.949 89.0152 199.119 88.9276C199.29 88.8376 199.424 88.7169 199.521 88.5653C199.618 88.4138 199.666 88.2422 199.666 88.0504V87.4716C199.619 87.5024 199.554 87.5308 199.471 87.5568C199.39 87.5805 199.299 87.603 199.197 87.6243C199.096 87.6432 198.994 87.661 198.892 87.6776C198.79 87.6918 198.698 87.7048 198.615 87.7166C198.438 87.7427 198.282 87.7841 198.15 87.8409C198.017 87.8977 197.914 87.9747 197.841 88.0717C197.768 88.1664 197.731 88.2848 197.731 88.4268C197.731 88.6328 197.805 88.7902 197.955 88.8991C198.106 89.0057 198.298 89.0589 198.53 89.0589ZM202.37 90V82.7273H203.883V85.4616H203.929C203.996 85.3149 204.092 85.1657 204.217 85.0142C204.345 84.8603 204.511 84.7325 204.714 84.6307C204.92 84.5265 205.176 84.4744 205.481 84.4744C205.879 84.4744 206.246 84.5786 206.582 84.7869C206.918 84.9929 207.187 85.3042 207.388 85.7209C207.589 86.1352 207.69 86.6548 207.69 87.2798C207.69 87.8883 207.592 88.402 207.395 88.821C207.201 89.2377 206.936 89.5537 206.6 89.7692C206.266 89.9822 205.892 90.0888 205.478 90.0888C205.184 90.0888 204.934 90.0402 204.728 89.9432C204.525 89.8461 204.358 89.7242 204.228 89.5774C204.097 89.4283 203.998 89.2779 203.929 89.1264H203.862V90H202.37ZM203.851 87.2727C203.851 87.5971 203.896 87.88 203.986 88.1214C204.076 88.3629 204.206 88.5511 204.377 88.6861C204.547 88.8187 204.754 88.8849 204.998 88.8849C205.244 88.8849 205.453 88.8175 205.623 88.6825C205.794 88.5452 205.923 88.3558 206.01 88.1143C206.1 87.8705 206.145 87.59 206.145 87.2727C206.145 86.9579 206.101 86.6809 206.014 86.4418C205.926 86.2027 205.797 86.0156 205.627 85.8807C205.456 85.7457 205.247 85.6783 204.998 85.6783C204.752 85.6783 204.544 85.7434 204.373 85.8736C204.205 86.0038 204.076 86.1884 203.986 86.4276C203.896 86.6667 203.851 86.9484 203.851 87.2727ZM210.212 82.7273V90H208.699V82.7273H210.212ZM213.91 90.1065C213.349 90.1065 212.866 89.9929 212.461 89.7656C212.058 89.536 211.748 89.2116 211.531 88.7926C211.313 88.3712 211.204 87.8729 211.204 87.2976C211.204 86.7365 211.313 86.2441 211.531 85.8203C211.748 85.3965 212.055 85.0663 212.45 84.8295C212.848 84.5928 213.314 84.4744 213.849 84.4744C214.209 84.4744 214.544 84.5324 214.854 84.6484C215.167 84.7621 215.439 84.9337 215.671 85.1634C215.906 85.393 216.088 85.6818 216.218 86.0298C216.348 86.3755 216.413 86.7803 216.413 87.2443V87.6598H211.808V86.7223H214.989C214.989 86.5045 214.942 86.3116 214.847 86.1435C214.753 85.9754 214.621 85.844 214.453 85.7493C214.287 85.6522 214.094 85.6037 213.874 85.6037C213.645 85.6037 213.441 85.657 213.263 85.7635C213.088 85.8677 212.951 86.0085 212.852 86.1861C212.752 86.3613 212.701 86.5566 212.699 86.772V87.6634C212.699 87.9332 212.749 88.1664 212.848 88.3629C212.95 88.5594 213.093 88.7109 213.278 88.8175C213.462 88.924 213.681 88.9773 213.935 88.9773C214.103 88.9773 214.257 88.9536 214.396 88.9062C214.536 88.8589 214.656 88.7879 214.755 88.6932C214.854 88.5985 214.93 88.4825 214.982 88.3452L216.381 88.4375C216.31 88.7737 216.165 89.0672 215.945 89.3182C215.727 89.5668 215.445 89.7609 215.099 89.9006C214.756 90.0379 214.36 90.1065 213.91 90.1065ZM220.302 84.5455V85.6818H217.017V84.5455H220.302ZM217.763 83.2386H219.276V88.3239C219.276 88.4635 219.297 88.5724 219.339 88.6506C219.382 88.7263 219.441 88.7796 219.517 88.8104C219.595 88.8411 219.685 88.8565 219.787 88.8565C219.858 88.8565 219.929 88.8506 220 88.8388C220.071 88.8246 220.125 88.8139 220.163 88.8068L220.401 89.9325C220.326 89.9562 220.219 89.9834 220.082 90.0142C219.944 90.0473 219.777 90.0675 219.581 90.0746C219.216 90.0888 218.897 90.0402 218.622 89.929C218.35 89.8177 218.138 89.6449 217.987 89.4105C217.835 89.1761 217.76 88.8802 217.763 88.5227V83.2386ZM225.757 86.1009L224.372 86.1861C224.349 86.0677 224.298 85.9612 224.22 85.8665C224.142 85.7694 224.039 85.6925 223.911 85.6357C223.785 85.5765 223.635 85.5469 223.46 85.5469C223.225 85.5469 223.028 85.5966 222.867 85.696C222.706 85.7931 222.625 85.9233 222.625 86.0866C222.625 86.2169 222.677 86.3269 222.781 86.4169C222.886 86.5069 223.064 86.5791 223.318 86.6335L224.305 86.8324C224.835 86.9413 225.231 87.1165 225.491 87.358C225.751 87.5994 225.882 87.9167 225.882 88.3097C225.882 88.6671 225.776 88.9808 225.566 89.2507C225.357 89.5206 225.071 89.7313 224.706 89.8828C224.344 90.032 223.926 90.1065 223.453 90.1065C222.731 90.1065 222.155 89.9562 221.727 89.6555C221.301 89.3525 221.051 88.9406 220.977 88.4197L222.465 88.3416C222.51 88.5618 222.619 88.7299 222.792 88.8459C222.965 88.9595 223.186 89.0163 223.456 89.0163C223.721 89.0163 223.934 88.9654 224.095 88.8636C224.259 88.7595 224.342 88.6257 224.344 88.4624C224.342 88.325 224.284 88.2126 224.17 88.125C224.056 88.035 223.881 87.9664 223.644 87.919L222.7 87.7308C222.167 87.6243 221.771 87.4396 221.51 87.1768C221.252 86.9141 221.123 86.5791 221.123 86.1719C221.123 85.8215 221.218 85.5196 221.407 85.2663C221.599 85.013 221.868 84.8177 222.213 84.6804C222.561 84.5431 222.968 84.4744 223.435 84.4744C224.124 84.4744 224.666 84.62 225.061 84.9112C225.459 85.2024 225.691 85.599 225.757 86.1009Z" fill="black"/>
<line x1="267.5" y1="28" x2="267.5" y2="100" stroke="black" stroke-opacity="0.4"/>
<path d="M278.8 42.2C279.35 42.75 280.1 43.05 280.85 43C282 42.9 283.1 42.4 283.95 41.6C285.15 40.4 285.65 38.65 285.25 37L291.55 31.55C291.85 31.3 292 30.9 292 30.5C292 30.1 291.85 29.7 291.55 29.45C291.3 29.15 290.9 29 290.5 29C290.1 29 289.7 29.15 289.4 29.45L284 35.75C283.6 35.65 283.25 35.6 282.85 35.6C281.6 35.6 280.35 36.1 279.4 37.05C278.55 37.9 278.05 39 278 40.15C277.95 40.9 278.25 41.65 278.8 42.2ZM290.15 30.15C290.35 29.95 290.65 29.95 290.85 30.15C290.95 30.25 291 30.35 291 30.5C291 30.65 290.95 30.75 290.9 30.85L285.85 35.2L290.15 30.15ZM280.15 37.75C281.2 36.7 282.7 36.35 284.1 36.8L284.2 36.85L284.25 36.95C284.7 38.35 284.35 39.85 283.3 40.9C282.65 41.55 281.75 41.95 280.85 42.05C280.4 42.1 279.9 41.9 279.55 41.55C279.2 41.2 279.05 40.75 279.05 40.25C279.05 39.3 279.45 38.4 280.15 37.75Z" fill="black"/>
<path d="M298.295 31.5085V30.7273H303.75V31.5085H301.463V38H300.582V31.5085H298.295ZM305.858 38.1278C305.513 38.1278 305.199 38.0627 304.917 37.9325C304.636 37.8 304.412 37.6094 304.246 37.3608C304.081 37.1098 303.998 36.8068 303.998 36.4517C303.998 36.1392 304.059 35.8859 304.182 35.6918C304.305 35.4953 304.47 35.3414 304.676 35.2301C304.882 35.1188 305.109 35.036 305.358 34.9815C305.609 34.9247 305.861 34.8797 306.114 34.8466C306.446 34.804 306.714 34.772 306.92 34.7507C307.129 34.727 307.28 34.688 307.375 34.6335C307.472 34.5791 307.52 34.4844 307.52 34.3494V34.321C307.52 33.9706 307.425 33.6984 307.233 33.5043C307.043 33.3101 306.756 33.2131 306.37 33.2131C305.97 33.2131 305.656 33.3007 305.429 33.4759C305.202 33.651 305.042 33.8381 304.949 34.0369L304.154 33.7528C304.296 33.4214 304.485 33.1634 304.722 32.9787C304.961 32.7917 305.222 32.6615 305.503 32.5881C305.787 32.5123 306.067 32.4744 306.341 32.4744C306.517 32.4744 306.718 32.4957 306.945 32.5384C307.175 32.5786 307.396 32.6626 307.609 32.7905C307.825 32.9183 308.003 33.1113 308.145 33.3693C308.287 33.6274 308.358 33.973 308.358 34.4062V38H307.52V37.2614H307.478C307.421 37.3797 307.326 37.5064 307.194 37.6413C307.061 37.7763 306.885 37.8911 306.665 37.9858C306.444 38.0805 306.176 38.1278 305.858 38.1278ZM305.986 37.375C306.318 37.375 306.597 37.3099 306.824 37.1797C307.054 37.0495 307.227 36.8814 307.343 36.6754C307.461 36.4695 307.52 36.2528 307.52 36.0256V35.2585C307.485 35.3011 307.407 35.3402 307.286 35.3757C307.168 35.4089 307.03 35.4384 306.874 35.4645C306.72 35.4882 306.57 35.5095 306.423 35.5284C306.279 35.545 306.162 35.5592 306.072 35.571C305.854 35.5994 305.65 35.6456 305.461 35.7095C305.274 35.7711 305.122 35.8646 305.006 35.9901C304.893 36.1132 304.836 36.2812 304.836 36.4943C304.836 36.7855 304.943 37.0057 305.159 37.1548C305.377 37.3016 305.653 37.375 305.986 37.375ZM310.669 36.0114L310.655 34.9744H310.826L313.212 32.5455H314.249L311.706 35.1165H311.635L310.669 36.0114ZM309.888 38V30.7273H310.726V38H309.888ZM313.354 38L311.223 35.3011L311.82 34.7188L314.419 38H313.354ZM317.39 38.1136C316.864 38.1136 316.411 37.9976 316.03 37.7656C315.651 37.5312 315.359 37.2045 315.153 36.7855C314.949 36.3641 314.847 35.8741 314.847 35.3153C314.847 34.7566 314.949 34.2642 315.153 33.8381C315.359 33.4096 315.645 33.0758 316.012 32.8366C316.381 32.5952 316.812 32.4744 317.305 32.4744C317.589 32.4744 317.869 32.5218 318.146 32.6165C318.423 32.7112 318.675 32.8651 318.903 33.0781C319.13 33.2888 319.311 33.5682 319.446 33.9162C319.581 34.2642 319.648 34.6927 319.648 35.2017V35.5568H315.444V34.8324H318.796C318.796 34.5246 318.735 34.25 318.612 34.0085C318.491 33.767 318.318 33.5765 318.093 33.4368C317.871 33.2971 317.608 33.2273 317.305 33.2273C316.971 33.2273 316.682 33.3101 316.438 33.4759C316.197 33.6392 316.011 33.8523 315.881 34.1151C315.75 34.3778 315.685 34.6596 315.685 34.9602V35.4432C315.685 35.8551 315.756 36.2043 315.898 36.4908C316.043 36.7749 316.243 36.9915 316.499 37.1406C316.754 37.2874 317.051 37.3608 317.39 37.3608C317.61 37.3608 317.809 37.33 317.987 37.2685C318.166 37.2045 318.321 37.1098 318.452 36.9844C318.582 36.8565 318.683 36.6979 318.754 36.5085L319.563 36.7358C319.478 37.0104 319.335 37.2519 319.134 37.4602C318.932 37.6662 318.684 37.8272 318.388 37.9432C318.092 38.0568 317.759 38.1136 317.39 38.1136ZM325.952 38.1136C325.459 38.1136 325.027 37.9964 324.656 37.7621C324.286 37.5277 323.997 37.1998 323.789 36.7784C323.583 36.357 323.48 35.8646 323.48 35.3011C323.48 34.733 323.583 34.237 323.789 33.8132C323.997 33.3894 324.286 33.0604 324.656 32.826C325.027 32.5916 325.459 32.4744 325.952 32.4744C326.444 32.4744 326.875 32.5916 327.244 32.826C327.616 33.0604 327.905 33.3894 328.111 33.8132C328.319 34.237 328.423 34.733 328.423 35.3011C328.423 35.8646 328.319 36.357 328.111 36.7784C327.905 37.1998 327.616 37.5277 327.244 37.7621C326.875 37.9964 326.444 38.1136 325.952 38.1136ZM325.952 37.3608C326.326 37.3608 326.634 37.2649 326.875 37.0732C327.116 36.8814 327.295 36.6293 327.411 36.3168C327.527 36.0043 327.585 35.6657 327.585 35.3011C327.585 34.9366 327.527 34.5968 327.411 34.282C327.295 33.9671 327.116 33.7126 326.875 33.5185C326.634 33.3243 326.326 33.2273 325.952 33.2273C325.578 33.2273 325.27 33.3243 325.028 33.5185C324.787 33.7126 324.608 33.9671 324.492 34.282C324.376 34.5968 324.318 34.9366 324.318 35.3011C324.318 35.6657 324.376 36.0043 324.492 36.3168C324.608 36.6293 324.787 36.8814 325.028 37.0732C325.27 37.2649 325.578 37.3608 325.952 37.3608ZM330.541 34.7188V38H329.703V32.5455H330.512V33.3977H330.583C330.711 33.1207 330.905 32.8982 331.166 32.7301C331.426 32.5597 331.762 32.4744 332.174 32.4744C332.544 32.4744 332.867 32.5502 333.144 32.7017C333.421 32.8509 333.636 33.0781 333.79 33.3835C333.944 33.6866 334.021 34.0701 334.021 34.5341V38H333.183V34.5909C333.183 34.1624 333.071 33.8286 332.849 33.5895C332.626 33.348 332.321 33.2273 331.933 33.2273C331.665 33.2273 331.426 33.2853 331.215 33.4013C331.007 33.5173 330.843 33.6866 330.722 33.9091C330.601 34.1316 330.541 34.4015 330.541 34.7188ZM337.839 38.1136C337.314 38.1136 336.86 37.9976 336.479 37.7656C336.1 37.5312 335.808 37.2045 335.602 36.7855C335.398 36.3641 335.297 35.8741 335.297 35.3153C335.297 34.7566 335.398 34.2642 335.602 33.8381C335.808 33.4096 336.094 33.0758 336.461 32.8366C336.831 32.5952 337.261 32.4744 337.754 32.4744C338.038 32.4744 338.319 32.5218 338.596 32.6165C338.873 32.7112 339.125 32.8651 339.352 33.0781C339.579 33.2888 339.76 33.5682 339.895 33.9162C340.03 34.2642 340.098 34.6927 340.098 35.2017V35.5568H335.893V34.8324H339.245C339.245 34.5246 339.184 34.25 339.061 34.0085C338.94 33.767 338.767 33.5765 338.542 33.4368C338.32 33.2971 338.057 33.2273 337.754 33.2273C337.42 33.2273 337.131 33.3101 336.887 33.4759C336.646 33.6392 336.46 33.8523 336.33 34.1151C336.2 34.3778 336.135 34.6596 336.135 34.9602V35.4432C336.135 35.8551 336.206 36.2043 336.348 36.4908C336.492 36.7749 336.692 36.9915 336.948 37.1406C337.203 37.2874 337.501 37.3608 337.839 37.3608C338.059 37.3608 338.258 37.33 338.436 37.2685C338.616 37.2045 338.771 37.1098 338.901 36.9844C339.031 36.8565 339.132 36.6979 339.203 36.5085L340.012 36.7358C339.927 37.0104 339.784 37.2519 339.583 37.4602C339.382 37.6662 339.133 37.8272 338.837 37.9432C338.541 38.0568 338.208 38.1136 337.839 38.1136ZM346.245 38.1136C345.79 38.1136 345.389 37.9988 345.041 37.7692C344.693 37.5372 344.421 37.2105 344.224 36.7891C344.028 36.3653 343.929 35.8646 343.929 35.2869C343.929 34.714 344.028 34.2169 344.224 33.7955C344.421 33.3741 344.694 33.0485 345.044 32.8189C345.395 32.5893 345.8 32.4744 346.259 32.4744C346.614 32.4744 346.895 32.5336 347.1 32.652C347.309 32.768 347.467 32.9006 347.576 33.0497C347.688 33.1965 347.774 33.3172 347.836 33.4119H347.907V30.7273H348.745V38H347.935V37.1619H347.836C347.774 37.2614 347.686 37.3868 347.573 37.5384C347.459 37.6875 347.297 37.8213 347.086 37.9396C346.876 38.0556 346.595 38.1136 346.245 38.1136ZM346.358 37.3608C346.694 37.3608 346.979 37.2732 347.211 37.098C347.443 36.9205 347.619 36.6754 347.74 36.3629C347.86 36.0481 347.921 35.6847 347.921 35.2727C347.921 34.8655 347.862 34.5092 347.743 34.2038C347.625 33.8961 347.45 33.657 347.218 33.4865C346.986 33.3137 346.699 33.2273 346.358 33.2273C346.003 33.2273 345.707 33.3184 345.471 33.5007C345.236 33.6806 345.06 33.9257 344.941 34.2358C344.825 34.5436 344.767 34.8892 344.767 35.2727C344.767 35.661 344.827 36.0137 344.945 36.331C345.066 36.6458 345.243 36.8968 345.478 37.0838C345.714 37.2685 346.008 37.3608 346.358 37.3608ZM352.612 38.1136C352.119 38.1136 351.687 37.9964 351.316 37.7621C350.946 37.5277 350.658 37.1998 350.449 36.7784C350.243 36.357 350.14 35.8646 350.14 35.3011C350.14 34.733 350.243 34.237 350.449 33.8132C350.658 33.3894 350.946 33.0604 351.316 32.826C351.687 32.5916 352.119 32.4744 352.612 32.4744C353.104 32.4744 353.535 32.5916 353.904 32.826C354.276 33.0604 354.565 33.3894 354.771 33.8132C354.979 34.237 355.083 34.733 355.083 35.3011C355.083 35.8646 354.979 36.357 354.771 36.7784C354.565 37.1998 354.276 37.5277 353.904 37.7621C353.535 37.9964 353.104 38.1136 352.612 38.1136ZM352.612 37.3608C352.986 37.3608 353.294 37.2649 353.535 37.0732C353.777 36.8814 353.955 36.6293 354.071 36.3168C354.187 36.0043 354.245 35.6657 354.245 35.3011C354.245 34.9366 354.187 34.5968 354.071 34.282C353.955 33.9671 353.777 33.7126 353.535 33.5185C353.294 33.3243 352.986 33.2273 352.612 33.2273C352.238 33.2273 351.93 33.3243 351.689 33.5185C351.447 33.7126 351.268 33.9671 351.152 34.282C351.036 34.5968 350.978 34.9366 350.978 35.3011C350.978 35.6657 351.036 36.0043 351.152 36.3168C351.268 36.6293 351.447 36.8814 351.689 37.0732C351.93 37.2649 352.238 37.3608 352.612 37.3608ZM360.226 33.767L359.474 33.9801C359.426 33.8546 359.356 33.7327 359.264 33.6143C359.174 33.4936 359.051 33.3942 358.895 33.3161C358.738 33.2379 358.538 33.1989 358.295 33.1989C357.961 33.1989 357.683 33.2758 357.46 33.4297C357.24 33.5812 357.13 33.7741 357.13 34.0085C357.13 34.2169 357.206 34.3814 357.357 34.5021C357.509 34.6229 357.745 34.7235 358.067 34.804L358.877 35.0028C359.365 35.1212 359.728 35.3023 359.967 35.5462C360.206 35.7876 360.326 36.099 360.326 36.4801C360.326 36.7926 360.236 37.072 360.056 37.3182C359.878 37.5644 359.63 37.7585 359.31 37.9006C358.991 38.0426 358.619 38.1136 358.195 38.1136C357.639 38.1136 357.178 37.9929 356.814 37.7514C356.449 37.5099 356.218 37.1572 356.121 36.6932L356.917 36.4943C356.992 36.7879 357.136 37.008 357.346 37.1548C357.559 37.3016 357.838 37.375 358.181 37.375C358.572 37.375 358.882 37.2921 359.111 37.1264C359.343 36.9583 359.459 36.7571 359.459 36.5227C359.459 36.3333 359.393 36.1747 359.26 36.0469C359.128 35.9167 358.924 35.8196 358.65 35.7557L357.741 35.5426C357.241 35.4242 356.874 35.2408 356.64 34.9922C356.408 34.7412 356.292 34.4276 356.292 34.0511C356.292 33.7434 356.378 33.4711 356.551 33.2344C356.726 32.9976 356.964 32.8118 357.265 32.6768C357.568 32.5419 357.911 32.4744 358.295 32.4744C358.834 32.4744 359.258 32.5928 359.566 32.8295C359.876 33.0663 360.096 33.3788 360.226 33.767ZM363.874 38.1136C363.349 38.1136 362.895 37.9976 362.514 37.7656C362.135 37.5312 361.843 37.2045 361.637 36.7855C361.433 36.3641 361.332 35.8741 361.332 35.3153C361.332 34.7566 361.433 34.2642 361.637 33.8381C361.843 33.4096 362.129 33.0758 362.496 32.8366C362.866 32.5952 363.297 32.4744 363.789 32.4744C364.073 32.4744 364.354 32.5218 364.631 32.6165C364.908 32.7112 365.16 32.8651 365.387 33.0781C365.614 33.2888 365.795 33.5682 365.93 33.9162C366.065 34.2642 366.133 34.6927 366.133 35.2017V35.5568H361.928V34.8324H365.281C365.281 34.5246 365.219 34.25 365.096 34.0085C364.975 33.767 364.802 33.5765 364.577 33.4368C364.355 33.2971 364.092 33.2273 363.789 33.2273C363.455 33.2273 363.166 33.3101 362.923 33.4759C362.681 33.6392 362.495 33.8523 362.365 34.1151C362.235 34.3778 362.17 34.6596 362.17 34.9602V35.4432C362.17 35.8551 362.241 36.2043 362.383 36.4908C362.527 36.7749 362.727 36.9915 362.983 37.1406C363.239 37.2874 363.536 37.3608 363.874 37.3608C364.094 37.3608 364.293 37.33 364.471 37.2685C364.651 37.2045 364.806 37.1098 364.936 36.9844C365.066 36.8565 365.167 36.6979 365.238 36.5085L366.048 36.7358C365.962 37.0104 365.819 37.2519 365.618 37.4602C365.417 37.6662 365.168 37.8272 364.872 37.9432C364.576 38.0568 364.244 38.1136 363.874 38.1136Z" fill="black"/>
<path d="M322.969 39.9886H340.609V40.6705H322.969V39.9886Z" fill="black"/>
<g opacity="0.25">
<rect x="279.5" y="52.5" width="11" height="11" rx="1.5" stroke="black"/>
<rect x="279" y="52" width="12" height="12" rx="2" fill="black"/>
</g>
<path d="M300.938 62H298.693V54.7273H301.037C301.742 54.7273 302.346 54.8729 302.848 55.1641C303.35 55.4529 303.735 55.8684 304.002 56.4105C304.27 56.9503 304.403 57.5966 304.403 58.3494C304.403 59.107 304.268 59.7592 303.999 60.3061C303.729 60.8506 303.336 61.2696 302.82 61.5632C302.304 61.8544 301.676 62 300.938 62ZM299.574 61.2188H300.881C301.482 61.2188 301.98 61.1027 302.376 60.8707C302.771 60.6387 303.066 60.3085 303.26 59.88C303.454 59.4515 303.551 58.9413 303.551 58.3494C303.551 57.7623 303.455 57.2569 303.263 56.8331C303.072 56.407 302.785 56.0803 302.404 55.853C302.023 55.6233 301.548 55.5085 300.98 55.5085H299.574V61.2188ZM307.983 62.1136C307.491 62.1136 307.058 61.9964 306.687 61.7621C306.317 61.5277 306.029 61.1998 305.82 60.7784C305.614 60.357 305.511 59.8646 305.511 59.3011C305.511 58.733 305.614 58.237 305.82 57.8132C306.029 57.3894 306.317 57.0604 306.687 56.826C307.058 56.5916 307.491 56.4744 307.983 56.4744C308.475 56.4744 308.906 56.5916 309.276 56.826C309.647 57.0604 309.936 57.3894 310.142 57.8132C310.35 58.237 310.455 58.733 310.455 59.3011C310.455 59.8646 310.35 60.357 310.142 60.7784C309.936 61.1998 309.647 61.5277 309.276 61.7621C308.906 61.9964 308.475 62.1136 307.983 62.1136ZM307.983 61.3608C308.357 61.3608 308.665 61.2649 308.906 61.0732C309.148 60.8814 309.326 60.6293 309.442 60.3168C309.558 60.0043 309.616 59.6657 309.616 59.3011C309.616 58.9366 309.558 58.5968 309.442 58.282C309.326 57.9671 309.148 57.7126 308.906 57.5185C308.665 57.3243 308.357 57.2273 307.983 57.2273C307.609 57.2273 307.301 57.3243 307.06 57.5185C306.818 57.7126 306.639 57.9671 306.523 58.282C306.407 58.5968 306.349 58.9366 306.349 59.3011C306.349 59.6657 306.407 60.0043 306.523 60.3168C306.639 60.6293 306.818 60.8814 307.06 61.0732C307.301 61.2649 307.609 61.3608 307.983 61.3608ZM315.384 58.7188V62H314.546V56.5455H315.356V57.3977H315.427C315.555 57.1207 315.749 56.8982 316.009 56.7301C316.27 56.5597 316.606 56.4744 317.018 56.4744C317.387 56.4744 317.71 56.5502 317.987 56.7017C318.264 56.8509 318.48 57.0781 318.634 57.3835C318.788 57.6866 318.865 58.0701 318.865 58.5341V62H318.026V58.5909C318.026 58.1624 317.915 57.8286 317.693 57.5895C317.47 57.348 317.165 57.2273 316.776 57.2273C316.509 57.2273 316.27 57.2853 316.059 57.4013C315.851 57.5173 315.686 57.6866 315.566 57.9091C315.445 58.1316 315.384 58.4015 315.384 58.7188ZM322.612 62.1136C322.119 62.1136 321.687 61.9964 321.316 61.7621C320.946 61.5277 320.658 61.1998 320.449 60.7784C320.243 60.357 320.14 59.8646 320.14 59.3011C320.14 58.733 320.243 58.237 320.449 57.8132C320.658 57.3894 320.946 57.0604 321.316 56.826C321.687 56.5916 322.119 56.4744 322.612 56.4744C323.104 56.4744 323.535 56.5916 323.904 56.826C324.276 57.0604 324.565 57.3894 324.771 57.8132C324.979 58.237 325.083 58.733 325.083 59.3011C325.083 59.8646 324.979 60.357 324.771 60.7784C324.565 61.1998 324.276 61.5277 323.904 61.7621C323.535 61.9964 323.104 62.1136 322.612 62.1136ZM322.612 61.3608C322.986 61.3608 323.294 61.2649 323.535 61.0732C323.777 60.8814 323.955 60.6293 324.071 60.3168C324.187 60.0043 324.245 59.6657 324.245 59.3011C324.245 58.9366 324.187 58.5968 324.071 58.282C323.955 57.9671 323.777 57.7126 323.535 57.5185C323.294 57.3243 322.986 57.2273 322.612 57.2273C322.238 57.2273 321.93 57.3243 321.689 57.5185C321.447 57.7126 321.268 57.9671 321.152 58.282C321.036 58.5968 320.978 58.9366 320.978 59.3011C320.978 59.6657 321.036 60.0043 321.152 60.3168C321.268 60.6293 321.447 60.8814 321.689 61.0732C321.93 61.2649 322.238 61.3608 322.612 61.3608ZM328.735 56.5455V57.2557H325.908V56.5455H328.735ZM326.732 55.2386H327.57V60.4375C327.57 60.6742 327.604 60.8518 327.673 60.9702C327.744 61.0862 327.834 61.1643 327.943 61.2045C328.054 61.2424 328.171 61.2614 328.295 61.2614C328.387 61.2614 328.463 61.2566 328.522 61.2472C328.581 61.2353 328.628 61.2259 328.664 61.2188L328.834 61.9716C328.778 61.9929 328.698 62.0142 328.596 62.0355C328.495 62.0592 328.366 62.071 328.209 62.071C327.973 62.071 327.741 62.0201 327.513 61.9183C327.288 61.8165 327.101 61.6615 326.952 61.4531C326.805 61.2448 326.732 60.982 326.732 60.6648V55.2386ZM335.18 56.5455V57.2557H332.354V56.5455H335.18ZM333.177 55.2386H334.015V60.4375C334.015 60.6742 334.05 60.8518 334.118 60.9702C334.189 61.0862 334.279 61.1643 334.388 61.2045C334.5 61.2424 334.617 61.2614 334.74 61.2614C334.832 61.2614 334.908 61.2566 334.967 61.2472C335.026 61.2353 335.074 61.2259 335.109 61.2188L335.28 61.9716C335.223 61.9929 335.144 62.0142 335.042 62.0355C334.94 62.0592 334.811 62.071 334.655 62.071C334.418 62.071 334.186 62.0201 333.959 61.9183C333.734 61.8165 333.547 61.6615 333.398 61.4531C333.251 61.2448 333.177 60.982 333.177 60.6648V55.2386ZM338.046 62.1278C337.7 62.1278 337.387 62.0627 337.105 61.9325C336.823 61.8 336.599 61.6094 336.434 61.3608C336.268 61.1098 336.185 60.8068 336.185 60.4517C336.185 60.1392 336.247 59.8859 336.37 59.6918C336.493 59.4953 336.657 59.3414 336.863 59.2301C337.069 59.1188 337.297 59.036 337.545 58.9815C337.796 58.9247 338.048 58.8797 338.302 58.8466C338.633 58.804 338.902 58.772 339.108 58.7507C339.316 58.727 339.468 58.688 339.562 58.6335C339.659 58.5791 339.708 58.4844 339.708 58.3494V58.321C339.708 57.9706 339.612 57.6984 339.42 57.5043C339.231 57.3101 338.943 57.2131 338.557 57.2131C338.157 57.2131 337.844 57.3007 337.616 57.4759C337.389 57.651 337.229 57.8381 337.137 58.0369L336.341 57.7528C336.483 57.4214 336.673 57.1634 336.91 56.9787C337.149 56.7917 337.409 56.6615 337.691 56.5881C337.975 56.5123 338.254 56.4744 338.529 56.4744C338.704 56.4744 338.905 56.4957 339.133 56.5384C339.362 56.5786 339.584 56.6626 339.797 56.7905C340.012 56.9183 340.191 57.1113 340.333 57.3693C340.475 57.6274 340.546 57.973 340.546 58.4062V62H339.708V61.2614H339.665C339.608 61.3797 339.514 61.5064 339.381 61.6413C339.249 61.7763 339.072 61.8911 338.852 61.9858C338.632 62.0805 338.363 62.1278 338.046 62.1278ZM338.174 61.375C338.505 61.375 338.785 61.3099 339.012 61.1797C339.242 61.0495 339.414 60.8814 339.53 60.6754C339.649 60.4695 339.708 60.2528 339.708 60.0256V59.2585C339.672 59.3011 339.594 59.3402 339.474 59.3757C339.355 59.4089 339.218 59.4384 339.062 59.4645C338.908 59.4882 338.757 59.5095 338.611 59.5284C338.466 59.545 338.349 59.5592 338.259 59.571C338.041 59.5994 337.838 59.6456 337.648 59.7095C337.461 59.7711 337.31 59.8646 337.194 59.9901C337.08 60.1132 337.023 60.2812 337.023 60.4943C337.023 60.7855 337.131 61.0057 337.346 61.1548C337.564 61.3016 337.84 61.375 338.174 61.375ZM342.857 60.0114L342.843 58.9744H343.013L345.4 56.5455H346.436L343.894 59.1165H343.823L342.857 60.0114ZM342.076 62V54.7273H342.914V62H342.076ZM345.542 62L343.411 59.3011L344.007 58.7188L346.607 62H345.542ZM349.577 62.1136C349.052 62.1136 348.598 61.9976 348.217 61.7656C347.839 61.5312 347.546 61.2045 347.34 60.7855C347.137 60.3641 347.035 59.8741 347.035 59.3153C347.035 58.7566 347.137 58.2642 347.34 57.8381C347.546 57.4096 347.833 57.0758 348.2 56.8366C348.569 56.5952 349 56.4744 349.492 56.4744C349.776 56.4744 350.057 56.5218 350.334 56.6165C350.611 56.7112 350.863 56.8651 351.09 57.0781C351.317 57.2888 351.499 57.5682 351.634 57.9162C351.768 58.2642 351.836 58.6927 351.836 59.2017V59.5568H347.631V58.8324H350.984C350.984 58.5246 350.922 58.25 350.799 58.0085C350.678 57.767 350.505 57.5765 350.281 57.4368C350.058 57.2971 349.795 57.2273 349.492 57.2273C349.158 57.2273 348.87 57.3101 348.626 57.4759C348.384 57.6392 348.198 57.8523 348.068 58.1151C347.938 58.3778 347.873 58.6596 347.873 58.9602V59.4432C347.873 59.8551 347.944 60.2043 348.086 60.4908C348.23 60.7749 348.43 60.9915 348.686 61.1406C348.942 61.2874 349.239 61.3608 349.577 61.3608C349.798 61.3608 349.996 61.33 350.174 61.2685C350.354 61.2045 350.509 61.1098 350.639 60.9844C350.769 60.8565 350.87 60.6979 350.941 60.5085L351.751 60.7358C351.665 61.0104 351.522 61.2519 351.321 61.4602C351.12 61.6662 350.871 61.8272 350.575 61.9432C350.279 62.0568 349.947 62.1136 349.577 62.1136Z" fill="black"/>
<path d="M310.077 84.8189C310.049 84.5324 309.927 84.3099 309.712 84.1513C309.496 83.9927 309.204 83.9134 308.835 83.9134C308.584 83.9134 308.372 83.9489 308.199 84.0199C308.026 84.0885 307.893 84.1844 307.801 84.3075C307.711 84.4306 307.666 84.5703 307.666 84.7266C307.661 84.8568 307.689 84.9704 307.748 85.0675C307.809 85.1645 307.893 85.2486 308 85.3196C308.107 85.3883 308.23 85.4486 308.369 85.5007C308.509 85.5504 308.658 85.593 308.817 85.6286L309.47 85.7848C309.787 85.8558 310.079 85.9505 310.344 86.0689C310.609 86.1873 310.839 86.3329 311.033 86.5057C311.227 86.6785 311.377 86.8821 311.484 87.1165C311.593 87.3509 311.648 87.6196 311.651 87.9226C311.648 88.3677 311.535 88.7536 311.31 89.0803C311.087 89.4046 310.765 89.6567 310.344 89.8366C309.925 90.0142 309.419 90.103 308.827 90.103C308.24 90.103 307.729 90.013 307.293 89.8331C306.86 89.6532 306.522 89.3868 306.278 89.0341C306.036 88.679 305.91 88.2398 305.898 87.7166H307.386C307.402 87.9605 307.472 88.1641 307.595 88.3274C307.721 88.4884 307.888 88.6103 308.096 88.6932C308.307 88.7737 308.545 88.8139 308.81 88.8139C309.07 88.8139 309.296 88.776 309.488 88.7003C309.682 88.6245 309.832 88.5192 309.939 88.3842C310.045 88.2493 310.099 88.0942 310.099 87.919C310.099 87.7557 310.05 87.6184 309.953 87.5071C309.858 87.3958 309.719 87.3011 309.534 87.223C309.352 87.1449 309.128 87.0739 308.863 87.0099L308.071 86.8111C307.458 86.6619 306.974 86.4287 306.619 86.1115C306.263 85.7943 306.087 85.367 306.089 84.8295C306.087 84.3892 306.204 84.0045 306.441 83.6754C306.68 83.3464 307.008 83.0895 307.425 82.9048C307.841 82.7202 308.315 82.6278 308.845 82.6278C309.385 82.6278 309.856 82.7202 310.259 82.9048C310.663 83.0895 310.978 83.3464 311.203 83.6754C311.428 84.0045 311.544 84.3857 311.551 84.8189H310.077ZM313.59 92.0455C313.399 92.0455 313.219 92.0301 313.051 91.9993C312.885 91.9709 312.748 91.9342 312.639 91.8892L312.98 90.7599C313.157 90.8144 313.317 90.844 313.459 90.8487C313.603 90.8535 313.728 90.8203 313.832 90.7493C313.938 90.6783 314.025 90.5575 314.091 90.3871L314.18 90.1562L312.223 84.5455H313.814L314.943 88.5511H315L316.14 84.5455H317.742L315.622 90.5895C315.52 90.883 315.381 91.1387 315.206 91.3565C315.033 91.5767 314.814 91.746 314.549 91.8643C314.284 91.9851 313.964 92.0455 313.59 92.0455ZM318.516 90V84.5455H319.982V85.4972H320.039C320.139 85.1586 320.306 84.9029 320.54 84.7301C320.774 84.5549 321.044 84.4673 321.35 84.4673C321.425 84.4673 321.507 84.4721 321.595 84.4815C321.682 84.491 321.759 84.504 321.825 84.5206V85.8629C321.754 85.8416 321.656 85.8227 321.531 85.8061C321.405 85.7895 321.29 85.7812 321.186 85.7812C320.964 85.7812 320.765 85.8298 320.59 85.9268C320.417 86.0215 320.28 86.1541 320.178 86.3246C320.078 86.495 320.029 86.6915 320.029 86.9141V90H318.516ZM326.105 87.6776V84.5455H327.618V90H326.166V89.0092H326.109C325.986 89.3288 325.781 89.5857 325.495 89.7798C325.211 89.974 324.864 90.071 324.454 90.071C324.09 90.071 323.769 89.9882 323.492 89.8224C323.215 89.6567 322.998 89.4212 322.842 89.1158C322.688 88.8104 322.61 88.4446 322.608 88.0185V84.5455H324.12V87.7486C324.123 88.0705 324.209 88.325 324.38 88.5121C324.55 88.6991 324.779 88.7926 325.065 88.7926C325.247 88.7926 325.418 88.7512 325.576 88.6683C325.735 88.5831 325.863 88.4576 325.96 88.2919C326.059 88.1262 326.108 87.9214 326.105 87.6776ZM328.828 92.0455V84.5455H330.32V85.4616H330.387C330.454 85.3149 330.549 85.1657 330.675 85.0142C330.803 84.8603 330.968 84.7325 331.172 84.6307C331.378 84.5265 331.634 84.4744 331.939 84.4744C332.337 84.4744 332.704 84.5786 333.04 84.7869C333.376 84.9929 333.645 85.3042 333.846 85.7209C334.047 86.1352 334.148 86.6548 334.148 87.2798C334.148 87.8883 334.05 88.402 333.853 88.821C333.659 89.2377 333.394 89.5537 333.058 89.7692C332.724 89.9822 332.35 90.0888 331.936 90.0888C331.642 90.0888 331.392 90.0402 331.186 89.9432C330.983 89.8461 330.816 89.7242 330.686 89.5774C330.555 89.4283 330.456 89.2779 330.387 89.1264H330.341V92.0455H328.828ZM330.309 87.2727C330.309 87.5971 330.354 87.88 330.444 88.1214C330.534 88.3629 330.664 88.5511 330.835 88.6861C331.005 88.8187 331.212 88.8849 331.456 88.8849C331.702 88.8849 331.911 88.8175 332.081 88.6825C332.252 88.5452 332.381 88.3558 332.468 88.1143C332.558 87.8705 332.603 87.59 332.603 87.2727C332.603 86.9579 332.559 86.6809 332.472 86.4418C332.384 86.2027 332.255 86.0156 332.085 85.8807C331.914 85.7457 331.705 85.6783 331.456 85.6783C331.21 85.6783 331.002 85.7434 330.831 85.8736C330.663 86.0038 330.534 86.1884 330.444 86.4276C330.354 86.6667 330.309 86.9484 330.309 87.2727ZM339.695 86.1009L338.31 86.1861C338.286 86.0677 338.235 85.9612 338.157 85.8665C338.079 85.7694 337.976 85.6925 337.848 85.6357C337.723 85.5765 337.572 85.5469 337.397 85.5469C337.163 85.5469 336.965 85.5966 336.804 85.696C336.643 85.7931 336.563 85.9233 336.563 86.0866C336.563 86.2169 336.615 86.3269 336.719 86.4169C336.823 86.5069 337.002 86.5791 337.255 86.6335L338.242 86.8324C338.773 86.9413 339.168 87.1165 339.428 87.358C339.689 87.5994 339.819 87.9167 339.819 88.3097C339.819 88.6671 339.714 88.9808 339.503 89.2507C339.295 89.5206 339.008 89.7313 338.644 89.8828C338.281 90.032 337.864 90.1065 337.39 90.1065C336.668 90.1065 336.093 89.9562 335.664 89.6555C335.238 89.3525 334.988 88.9406 334.915 88.4197L336.403 88.3416C336.448 88.5618 336.557 88.7299 336.73 88.8459C336.902 88.9595 337.124 89.0163 337.394 89.0163C337.659 89.0163 337.872 88.9654 338.033 88.8636C338.196 88.7595 338.279 88.6257 338.281 88.4624C338.279 88.325 338.221 88.2126 338.107 88.125C337.994 88.035 337.819 87.9664 337.582 87.919L336.637 87.7308C336.105 87.6243 335.708 87.4396 335.448 87.1768C335.19 86.9141 335.061 86.5791 335.061 86.1719C335.061 85.8215 335.155 85.5196 335.345 85.2663C335.536 85.013 335.805 84.8177 336.151 84.6804C336.499 84.5431 336.906 84.4744 337.372 84.4744C338.061 84.4744 338.603 84.62 338.999 84.9112C339.396 85.2024 339.628 85.599 339.695 86.1009Z" fill="black"/>
<defs>
<clipPath id="clip0_79_29795">
<rect width="12" height="12" fill="white" transform="translate(88 44)"/>
</clipPath>
<clipPath id="clip1_79_29795">
<rect width="12" height="12" fill="white" transform="translate(104 44)"/>
</clipPath>
<clipPath id="clip2_79_29795">
<rect x="162" y="28" width="16" height="16" rx="4" fill="white"/>
</clipPath>
<clipPath id="clip3_79_29795">
<rect width="16" height="16" fill="white" transform="translate(162 28)"/>
</clipPath>
</defs>
</svg>
